<?xml version="1.0" encoding="UTF-8" standalone="no"?>
<!-- Created with Inkscape (http://www.inkscape.org/) -->

<svg
   xmlns:dc="http://purl.org/dc/elements/1.1/"
   xmlns:cc="http://creativecommons.org/ns#"
   xmlns:rdf="http://www.w3.org/1999/02/22-rdf-syntax-ns#"
   xmlns:svg="http://www.w3.org/2000/svg"
   xmlns="http://www.w3.org/2000/svg"
   xmlns:sodipodi="http://sodipodi.sourceforge.net/DTD/sodipodi-0.dtd"
   xmlns:inkscape="http://www.inkscape.org/namespaces/inkscape"
   id="svg7382"
   version="1.1"
   inkscape:version="0.91 r13725"
   xml:space="preserve"
   width="426"
   height="325"
   viewBox="0 0 426 325.00001"
   sodipodi:docname="3-Error-UKF.svg"><metadata
     id="metadata7388"><rdf:RDF><cc:Work
         rdf:about=""><dc:format>image/svg+xml</dc:format><dc:type
           rdf:resource="http://purl.org/dc/dcmitype/StillImage" /><dc:title></dc:title></cc:Work></rdf:RDF></metadata><defs
     id="defs7386"><clipPath
       clipPathUnits="userSpaceOnUse"
       id="clipPath7396"><path
         d="m 18,612.09 0,-432 576,0 0,432 -576,0 z"
         id="path7398"
         inkscape:connector-curvature="0"
         style="clip-rule:evenodd" /></clipPath></defs><sodipodi:namedview
     pagecolor="#ffffff"
     bordercolor="#666666"
     borderopacity="1"
     objecttolerance="10"
     gridtolerance="10"
     guidetolerance="10"
     inkscape:pageopacity="0"
     inkscape:pageshadow="2"
     inkscape:window-width="1366"
     inkscape:window-height="705"
     id="namedview7384"
     showgrid="false"
     fit-margin-top="0"
     fit-margin-left="0"
     fit-margin-right="0"
     fit-margin-bottom="0"
     inkscape:zoom="0.22425739"
     inkscape:cx="287.50255"
     inkscape:cy="272.11046"
     inkscape:window-x="-8"
     inkscape:window-y="-8"
     inkscape:window-maximized="1"
     inkscape:current-layer="g7390" /><g
     id="g7390"
     inkscape:groupmode="layer"
     inkscape:label="2-simuOutput"
     transform="matrix(1.25,0,0,-1.25,-84.544696,579.07065)"><g
       id="g7392"><g
         id="g7394"
         clip-path="url(#clipPath7396)"><path
           d="m 18,612.09 576,0 0,-432 -576,0 0,432 z"
           style="fill:#ffffff;fill-opacity:1;fill-rule:nonzero;stroke:none"
           id="path7400"
           inkscape:connector-curvature="0" /></g></g><path
       d="m 90.722687,219.44549 0,234.04512 310.313583,0 0,-234.04512 -310.313583,0 z"
       style="fill:#ffffff;fill-opacity:1;fill-rule:evenodd;stroke:none"
       id="path7402"
       inkscape:connector-curvature="0" /><g
       id="g7404"
       transform="matrix(0.08341762,0,0,-0.07976998,26.157443,627.78801)"><path
         d="m 774,5119 0,-2934 3720,0 0,2934 -3720,0"
         style="fill:none;stroke:#ffffff;stroke-width:4;stroke-linecap:butt;stroke-linejoin:round;stroke-miterlimit:10;stroke-dasharray:none;stroke-opacity:1"
         id="path7406"
         inkscape:connector-curvature="0" /></g><g
       id="g7408"
       transform="matrix(0.08341762,0,0,-0.07976998,26.157443,627.78801)"><path
         d="m 774,2185 3720,0"
         style="fill:none;stroke:#000000;stroke-width:4;stroke-linecap:butt;stroke-linejoin:round;stroke-miterlimit:10;stroke-dasharray:none;stroke-opacity:1"
         id="path7410"
         inkscape:connector-curvature="0" /></g><path
       d="m 401.03627,453.49061 0.0834,0 0,-0.0798 -0.0834,0 0,0.0798 z"
       style="fill:#000000;fill-opacity:1;fill-rule:nonzero;stroke:none"
       id="path7412"
       inkscape:connector-curvature="0" /><g
       id="g7414"
       transform="matrix(0.08341762,0,0,-0.07976998,26.157443,627.78801)"><path
         d="m 774,5119 3720,0"
         style="fill:none;stroke:#000000;stroke-width:4;stroke-linecap:butt;stroke-linejoin:round;stroke-miterlimit:10;stroke-dasharray:none;stroke-opacity:1"
         id="path7416"
         inkscape:connector-curvature="0" /></g><path
       d="m 401.03627,219.44549 0.0834,0 0,-0.0798 -0.0834,0 0,0.0798 z"
       style="fill:#000000;fill-opacity:1;fill-rule:nonzero;stroke:none"
       id="path7418"
       inkscape:connector-curvature="0" /><g
       id="g7420"
       transform="matrix(0.08341762,0,0,-0.07976998,26.157443,627.78801)"><path
         d="m 4494,5119 0,-2934"
         style="fill:none;stroke:#000000;stroke-width:4;stroke-linecap:butt;stroke-linejoin:round;stroke-miterlimit:10;stroke-dasharray:none;stroke-opacity:1"
         id="path7422"
         inkscape:connector-curvature="0" /></g><path
       d="m 401.03627,453.49061 0.0834,0 0,-0.0798 -0.0834,0 0,0.0798 z"
       style="fill:#000000;fill-opacity:1;fill-rule:nonzero;stroke:none"
       id="path7424"
       inkscape:connector-curvature="0" /><g
       id="g7426"
       transform="matrix(0.08341762,0,0,-0.07976998,26.157443,627.78801)"><path
         d="m 774,5119 0,-2934"
         style="fill:none;stroke:#000000;stroke-width:4;stroke-linecap:butt;stroke-linejoin:round;stroke-miterlimit:10;stroke-dasharray:none;stroke-opacity:1"
         id="path7428"
         inkscape:connector-curvature="0" /></g><path
       d="m 90.722687,453.49061 0.08342,0 0,-0.0798 -0.08342,0 0,0.0798 z"
       style="fill:#000000;fill-opacity:1;fill-rule:nonzero;stroke:none"
       id="path7430"
       inkscape:connector-curvature="0" /><g
       id="g7432"
       transform="matrix(0.08341762,0,0,-0.07976998,26.157443,627.78801)"><path
         d="m 774,5119 3720,0"
         style="fill:none;stroke:#000000;stroke-width:4;stroke-linecap:butt;stroke-linejoin:round;stroke-miterlimit:10;stroke-dasharray:none;stroke-opacity:1"
         id="path7434"
         inkscape:connector-curvature="0" /></g><path
       d="m 401.03627,219.44549 0.0834,0 0,-0.0798 -0.0834,0 0,0.0798 z"
       style="fill:#000000;fill-opacity:1;fill-rule:nonzero;stroke:none"
       id="path7436"
       inkscape:connector-curvature="0" /><g
       id="g7438"
       transform="matrix(0.08341762,0,0,-0.07976998,26.157443,627.78801)"><path
         d="m 774,5119 0,-2934"
         style="fill:none;stroke:#000000;stroke-width:4;stroke-linecap:butt;stroke-linejoin:round;stroke-miterlimit:10;stroke-dasharray:none;stroke-opacity:1"
         id="path7440"
         inkscape:connector-curvature="0" /></g><path
       d="m 90.722687,453.49061 0.08342,0 0,-0.0798 -0.08342,0 0,0.0798 z"
       style="fill:#000000;fill-opacity:1;fill-rule:nonzero;stroke:none"
       id="path7442"
       inkscape:connector-curvature="0" /><g
       id="g7444"
       transform="matrix(0.08341762,0,0,-0.07976998,26.157443,627.78801)"><path
         d="m 774,5119 0,-38"
         style="fill:none;stroke:#000000;stroke-width:4;stroke-linecap:butt;stroke-linejoin:round;stroke-miterlimit:10;stroke-dasharray:none;stroke-opacity:1"
         id="path7446"
         inkscape:connector-curvature="0" /></g><path
       d="m 90.722687,222.47675 0.08342,0 0,-0.0798 -0.08342,0 0,0.0798 z"
       style="fill:#000000;fill-opacity:1;fill-rule:nonzero;stroke:none"
       id="path7448"
       inkscape:connector-curvature="0" /><g
       id="g7450"
       transform="matrix(0.08341762,0,0,-0.07976998,26.157443,627.78801)"><path
         d="m 774,2185 0,37"
         style="fill:none;stroke:#000000;stroke-width:4;stroke-linecap:butt;stroke-linejoin:round;stroke-miterlimit:10;stroke-dasharray:none;stroke-opacity:1"
         id="path7452"
         inkscape:connector-curvature="0" /></g><path
       d="m 90.722687,450.53912 0.08342,0 0,-0.0798 -0.08342,0 0,0.0798 z"
       style="fill:#000000;fill-opacity:1;fill-rule:nonzero;stroke:none"
       id="path7454"
       inkscape:connector-curvature="0" /><text
       transform="scale(1.022608,-0.97789181)"
       style="font-variant:normal;font-weight:normal;font-size:6.77059412px;font-family:Arial;-inkscape-font-specification:Arial;writing-mode:lr-tb;fill:#000000;fill-opacity:1;fill-rule:nonzero;stroke:none"
       id="text7456"
       x="86.839478"
       y="-216.41464"><tspan
         x="86.839478"
         y="-216.41464"
         id="tspan7458">0</tspan></text>
<g
       id="g7460"
       transform="matrix(0.08341762,0,0,-0.07976998,26.157443,627.78801)"><path
         d="m 1146,5119 0,-38"
         style="fill:none;stroke:#000000;stroke-width:4;stroke-linecap:butt;stroke-linejoin:round;stroke-miterlimit:10;stroke-dasharray:none;stroke-opacity:1"
         id="path7462"
         inkscape:connector-curvature="0" /></g><path
       d="m 121.75405,222.47675 0.0834,0 0,-0.0798 -0.0834,0 0,0.0798 z"
       style="fill:#000000;fill-opacity:1;fill-rule:nonzero;stroke:none"
       id="path7464"
       inkscape:connector-curvature="0" /><g
       id="g7466"
       transform="matrix(0.08341762,0,0,-0.07976998,26.157443,627.78801)"><path
         d="m 1146,2185 0,37"
         style="fill:none;stroke:#000000;stroke-width:4;stroke-linecap:butt;stroke-linejoin:round;stroke-miterlimit:10;stroke-dasharray:none;stroke-opacity:1"
         id="path7468"
         inkscape:connector-curvature="0" /></g><path
       d="m 121.75405,450.53912 0.0834,0 0,-0.0798 -0.0834,0 0,0.0798 z"
       style="fill:#000000;fill-opacity:1;fill-rule:nonzero;stroke:none"
       id="path7470"
       inkscape:connector-curvature="0" /><text
       transform="scale(1.022608,-0.97789181)"
       style="font-variant:normal;font-weight:normal;font-size:6.77059412px;font-family:Arial;-inkscape-font-specification:Arial;writing-mode:lr-tb;fill:#000000;fill-opacity:1;fill-rule:nonzero;stroke:none"
       id="text7472"
       x="113.43437"
       y="-216.41464"><tspan
         x="113.43437 117.19881 120.96327"
         y="-216.41464"
         sodipodi:role="line"
         id="tspan7474">100</tspan></text>
<g
       id="g7476"
       transform="matrix(0.08341762,0,0,-0.07976998,26.157443,627.78801)"><path
         d="m 1518,5119 0,-38"
         style="fill:none;stroke:#000000;stroke-width:4;stroke-linecap:butt;stroke-linejoin:round;stroke-miterlimit:10;stroke-dasharray:none;stroke-opacity:1"
         id="path7478"
         inkscape:connector-curvature="0" /></g><path
       d="m 152.7854,222.47675 0.0834,0 0,-0.0798 -0.0834,0 0,0.0798 z"
       style="fill:#000000;fill-opacity:1;fill-rule:nonzero;stroke:none"
       id="path7480"
       inkscape:connector-curvature="0" /><g
       id="g7482"
       transform="matrix(0.08341762,0,0,-0.07976998,26.157443,627.78801)"><path
         d="m 1518,2185 0,37"
         style="fill:none;stroke:#000000;stroke-width:4;stroke-linecap:butt;stroke-linejoin:round;stroke-miterlimit:10;stroke-dasharray:none;stroke-opacity:1"
         id="path7484"
         inkscape:connector-curvature="0" /></g><path
       d="m 152.7854,450.53912 0.0834,0 0,-0.0798 -0.0834,0 0,0.0798 z"
       style="fill:#000000;fill-opacity:1;fill-rule:nonzero;stroke:none"
       id="path7486"
       inkscape:connector-curvature="0" /><text
       transform="scale(1.022608,-0.97789181)"
       style="font-variant:normal;font-weight:normal;font-size:6.77059412px;font-family:Arial;-inkscape-font-specification:Arial;writing-mode:lr-tb;fill:#000000;fill-opacity:1;fill-rule:nonzero;stroke:none"
       id="text7488"
       x="143.78017"
       y="-216.41464"><tspan
         x="143.78017 147.54463 151.30907"
         y="-216.41464"
         sodipodi:role="line"
         id="tspan7490">200</tspan></text>
<g
       id="g7492"
       transform="matrix(0.08341762,0,0,-0.07976998,26.157443,627.78801)"><path
         d="m 1890,5119 0,-38"
         style="fill:none;stroke:#000000;stroke-width:4;stroke-linecap:butt;stroke-linejoin:round;stroke-miterlimit:10;stroke-dasharray:none;stroke-opacity:1"
         id="path7494"
         inkscape:connector-curvature="0" /></g><path
       d="m 183.81677,222.47675 0.0834,0 0,-0.0798 -0.0834,0 0,0.0798 z"
       style="fill:#000000;fill-opacity:1;fill-rule:nonzero;stroke:none"
       id="path7496"
       inkscape:connector-curvature="0" /><g
       id="g7498"
       transform="matrix(0.08341762,0,0,-0.07976998,26.157443,627.78801)"><path
         d="m 1890,2185 0,37"
         style="fill:none;stroke:#000000;stroke-width:4;stroke-linecap:butt;stroke-linejoin:round;stroke-miterlimit:10;stroke-dasharray:none;stroke-opacity:1"
         id="path7500"
         inkscape:connector-curvature="0" /></g><path
       d="m 183.81677,450.53912 0.0834,0 0,-0.0798 -0.0834,0 0,0.0798 z"
       style="fill:#000000;fill-opacity:1;fill-rule:nonzero;stroke:none"
       id="path7502"
       inkscape:connector-curvature="0" /><text
       transform="scale(1.022608,-0.97789181)"
       style="font-variant:normal;font-weight:normal;font-size:6.77059412px;font-family:Arial;-inkscape-font-specification:Arial;writing-mode:lr-tb;fill:#000000;fill-opacity:1;fill-rule:nonzero;stroke:none"
       id="text7504"
       x="174.12598"
       y="-216.41464"><tspan
         x="174.12598 177.89043 181.65488"
         y="-216.41464"
         sodipodi:role="line"
         id="tspan7506">300</tspan></text>
<g
       id="g7508"
       transform="matrix(0.08341762,0,0,-0.07976998,26.157443,627.78801)"><path
         d="m 2262,5119 0,-38"
         style="fill:none;stroke:#000000;stroke-width:4;stroke-linecap:butt;stroke-linejoin:round;stroke-miterlimit:10;stroke-dasharray:none;stroke-opacity:1"
         id="path7510"
         inkscape:connector-curvature="0" /></g><path
       d="m 214.84812,222.47675 0.0834,0 0,-0.0798 -0.0834,0 0,0.0798 z"
       style="fill:#000000;fill-opacity:1;fill-rule:nonzero;stroke:none"
       id="path7512"
       inkscape:connector-curvature="0" /><g
       id="g7514"
       transform="matrix(0.08341762,0,0,-0.07976998,26.157443,627.78801)"><path
         d="m 2262,2185 0,37"
         style="fill:none;stroke:#000000;stroke-width:4;stroke-linecap:butt;stroke-linejoin:round;stroke-miterlimit:10;stroke-dasharray:none;stroke-opacity:1"
         id="path7516"
         inkscape:connector-curvature="0" /></g><path
       d="m 214.84812,450.53912 0.0834,0 0,-0.0798 -0.0834,0 0,0.0798 z"
       style="fill:#000000;fill-opacity:1;fill-rule:nonzero;stroke:none"
       id="path7518"
       inkscape:connector-curvature="0" /><text
       transform="scale(1.022608,-0.97789181)"
       style="font-variant:normal;font-weight:normal;font-size:6.77059412px;font-family:Arial;-inkscape-font-specification:Arial;writing-mode:lr-tb;fill:#000000;fill-opacity:1;fill-rule:nonzero;stroke:none"
       id="text7520"
       x="204.47177"
       y="-216.41464"><tspan
         x="204.47177 208.23624 212.00066"
         y="-216.41464"
         sodipodi:role="line"
         id="tspan7522">400</tspan></text>
<g
       id="g7524"
       transform="matrix(0.08341762,0,0,-0.07976998,26.157443,627.78801)"><path
         d="m 2634,5119 0,-38"
         style="fill:none;stroke:#000000;stroke-width:4;stroke-linecap:butt;stroke-linejoin:round;stroke-miterlimit:10;stroke-dasharray:none;stroke-opacity:1"
         id="path7526"
         inkscape:connector-curvature="0" /></g><path
       d="m 245.87948,222.47675 0.0834,0 0,-0.0798 -0.0834,0 0,0.0798 z"
       style="fill:#000000;fill-opacity:1;fill-rule:nonzero;stroke:none"
       id="path7528"
       inkscape:connector-curvature="0" /><g
       id="g7530"
       transform="matrix(0.08341762,0,0,-0.07976998,26.157443,627.78801)"><path
         d="m 2634,2185 0,37"
         style="fill:none;stroke:#000000;stroke-width:4;stroke-linecap:butt;stroke-linejoin:round;stroke-miterlimit:10;stroke-dasharray:none;stroke-opacity:1"
         id="path7532"
         inkscape:connector-curvature="0" /></g><path
       d="m 245.87948,450.53912 0.0834,0 0,-0.0798 -0.0834,0 0,0.0798 z"
       style="fill:#000000;fill-opacity:1;fill-rule:nonzero;stroke:none"
       id="path7534"
       inkscape:connector-curvature="0" /><text
       transform="scale(1.022608,-0.97789181)"
       style="font-variant:normal;font-weight:normal;font-size:6.77059412px;font-family:Arial;-inkscape-font-specification:Arial;writing-mode:lr-tb;fill:#000000;fill-opacity:1;fill-rule:nonzero;stroke:none"
       id="text7536"
       x="234.81758"
       y="-216.41464"><tspan
         x="234.81758 238.582 242.34647"
         y="-216.41464"
         sodipodi:role="line"
         id="tspan7538">500</tspan></text>
<g
       id="g7540"
       transform="matrix(0.08341762,0,0,-0.07976998,26.157443,627.78801)"><path
         d="m 3006,5119 0,-38"
         style="fill:none;stroke:#000000;stroke-width:4;stroke-linecap:butt;stroke-linejoin:round;stroke-miterlimit:10;stroke-dasharray:none;stroke-opacity:1"
         id="path7542"
         inkscape:connector-curvature="0" /></g><path
       d="m 276.91084,222.47675 0.0834,0 0,-0.0798 -0.0834,0 0,0.0798 z"
       style="fill:#000000;fill-opacity:1;fill-rule:nonzero;stroke:none"
       id="path7544"
       inkscape:connector-curvature="0" /><g
       id="g7546"
       transform="matrix(0.08341762,0,0,-0.07976998,26.157443,627.78801)"><path
         d="m 3006,2185 0,37"
         style="fill:none;stroke:#000000;stroke-width:4;stroke-linecap:butt;stroke-linejoin:round;stroke-miterlimit:10;stroke-dasharray:none;stroke-opacity:1"
         id="path7548"
         inkscape:connector-curvature="0" /></g><path
       d="m 276.91084,450.53912 0.0834,0 0,-0.0798 -0.0834,0 0,0.0798 z"
       style="fill:#000000;fill-opacity:1;fill-rule:nonzero;stroke:none"
       id="path7550"
       inkscape:connector-curvature="0" /><text
       transform="scale(1.022608,-0.97789181)"
       style="font-variant:normal;font-weight:normal;font-size:6.77059412px;font-family:Arial;-inkscape-font-specification:Arial;writing-mode:lr-tb;fill:#000000;fill-opacity:1;fill-rule:nonzero;stroke:none"
       id="text7552"
       x="265.16336"
       y="-216.41464"><tspan
         x="265.16336 268.92783 272.69229"
         y="-216.41464"
         sodipodi:role="line"
         id="tspan7554">600</tspan></text>
<g
       id="g7556"
       transform="matrix(0.08341762,0,0,-0.07976998,26.157443,627.78801)"><path
         d="m 3378,5119 0,-38"
         style="fill:none;stroke:#000000;stroke-width:4;stroke-linecap:butt;stroke-linejoin:round;stroke-miterlimit:10;stroke-dasharray:none;stroke-opacity:1"
         id="path7558"
         inkscape:connector-curvature="0" /></g><path
       d="m 307.9422,222.47675 0.0834,0 0,-0.0798 -0.0834,0 0,0.0798 z"
       style="fill:#000000;fill-opacity:1;fill-rule:nonzero;stroke:none"
       id="path7560"
       inkscape:connector-curvature="0" /><g
       id="g7562"
       transform="matrix(0.08341762,0,0,-0.07976998,26.157443,627.78801)"><path
         d="m 3378,2185 0,37"
         style="fill:none;stroke:#000000;stroke-width:4;stroke-linecap:butt;stroke-linejoin:round;stroke-miterlimit:10;stroke-dasharray:none;stroke-opacity:1"
         id="path7564"
         inkscape:connector-curvature="0" /></g><path
       d="m 307.9422,450.53912 0.0834,0 0,-0.0798 -0.0834,0 0,0.0798 z"
       style="fill:#000000;fill-opacity:1;fill-rule:nonzero;stroke:none"
       id="path7566"
       inkscape:connector-curvature="0" /><text
       transform="scale(1.022608,-0.97789181)"
       style="font-variant:normal;font-weight:normal;font-size:6.77059412px;font-family:Arial;-inkscape-font-specification:Arial;writing-mode:lr-tb;fill:#000000;fill-opacity:1;fill-rule:nonzero;stroke:none"
       id="text7568"
       x="295.50919"
       y="-216.41464"><tspan
         x="295.50919 299.27362 303.03809"
         y="-216.41464"
         sodipodi:role="line"
         id="tspan7570">700</tspan></text>
<g
       id="g7572"
       transform="matrix(0.08341762,0,0,-0.07976998,26.157443,627.78801)"><path
         d="m 3750,5119 0,-38"
         style="fill:none;stroke:#000000;stroke-width:4;stroke-linecap:butt;stroke-linejoin:round;stroke-miterlimit:10;stroke-dasharray:none;stroke-opacity:1"
         id="path7574"
         inkscape:connector-curvature="0" /></g><path
       d="m 338.97355,222.47675 0.0834,0 0,-0.0798 -0.0834,0 0,0.0798 z"
       style="fill:#000000;fill-opacity:1;fill-rule:nonzero;stroke:none"
       id="path7576"
       inkscape:connector-curvature="0" /><g
       id="g7578"
       transform="matrix(0.08341762,0,0,-0.07976998,26.157443,627.78801)"><path
         d="m 3750,2185 0,37"
         style="fill:none;stroke:#000000;stroke-width:4;stroke-linecap:butt;stroke-linejoin:round;stroke-miterlimit:10;stroke-dasharray:none;stroke-opacity:1"
         id="path7580"
         inkscape:connector-curvature="0" /></g><path
       d="m 338.97355,450.53912 0.0834,0 0,-0.0798 -0.0834,0 0,0.0798 z"
       style="fill:#000000;fill-opacity:1;fill-rule:nonzero;stroke:none"
       id="path7582"
       inkscape:connector-curvature="0" /><text
       transform="scale(1.022608,-0.97789181)"
       style="font-variant:normal;font-weight:normal;font-size:6.77059412px;font-family:Arial;-inkscape-font-specification:Arial;writing-mode:lr-tb;fill:#000000;fill-opacity:1;fill-rule:nonzero;stroke:none"
       id="text7584"
       x="325.85498"
       y="-216.41464"><tspan
         x="325.85498 329.61942 333.38388"
         y="-216.41464"
         sodipodi:role="line"
         id="tspan7586">800</tspan></text>
<g
       id="g7588"
       transform="matrix(0.08341762,0,0,-0.07976998,26.157443,627.78801)"><path
         d="m 4122,5119 0,-38"
         style="fill:none;stroke:#000000;stroke-width:4;stroke-linecap:butt;stroke-linejoin:round;stroke-miterlimit:10;stroke-dasharray:none;stroke-opacity:1"
         id="path7590"
         inkscape:connector-curvature="0" /></g><path
       d="m 370.00491,222.47675 0.0834,0 0,-0.0798 -0.0834,0 0,0.0798 z"
       style="fill:#000000;fill-opacity:1;fill-rule:nonzero;stroke:none"
       id="path7592"
       inkscape:connector-curvature="0" /><g
       id="g7594"
       transform="matrix(0.08341762,0,0,-0.07976998,26.157443,627.78801)"><path
         d="m 4122,2185 0,37"
         style="fill:none;stroke:#000000;stroke-width:4;stroke-linecap:butt;stroke-linejoin:round;stroke-miterlimit:10;stroke-dasharray:none;stroke-opacity:1"
         id="path7596"
         inkscape:connector-curvature="0" /></g><path
       d="m 370.00491,450.53912 0.0834,0 0,-0.0798 -0.0834,0 0,0.0798 z"
       style="fill:#000000;fill-opacity:1;fill-rule:nonzero;stroke:none"
       id="path7598"
       inkscape:connector-curvature="0" /><text
       transform="scale(1.022608,-0.97789181)"
       style="font-variant:normal;font-weight:normal;font-size:6.77059412px;font-family:Arial;-inkscape-font-specification:Arial;writing-mode:lr-tb;fill:#000000;fill-opacity:1;fill-rule:nonzero;stroke:none"
       id="text7600"
       x="356.20078"
       y="-216.41464"><tspan
         x="356.20078 359.96521 363.72968"
         y="-216.41464"
         sodipodi:role="line"
         id="tspan7602">900</tspan></text>
<g
       id="g7604"
       transform="matrix(0.08341762,0,0,-0.07976998,26.157443,627.78801)"><path
         d="m 4494,5119 0,-38"
         style="fill:none;stroke:#000000;stroke-width:4;stroke-linecap:butt;stroke-linejoin:round;stroke-miterlimit:10;stroke-dasharray:none;stroke-opacity:1"
         id="path7606"
         inkscape:connector-curvature="0" /></g><path
       d="m 401.03627,222.47675 0.0834,0 0,-0.0798 -0.0834,0 0,0.0798 z"
       style="fill:#000000;fill-opacity:1;fill-rule:nonzero;stroke:none"
       id="path7608"
       inkscape:connector-curvature="0" /><g
       id="g7610"
       transform="matrix(0.08341762,0,0,-0.07976998,26.157443,627.78801)"><path
         d="m 4494,2185 0,37"
         style="fill:none;stroke:#000000;stroke-width:4;stroke-linecap:butt;stroke-linejoin:round;stroke-miterlimit:10;stroke-dasharray:none;stroke-opacity:1"
         id="path7612"
         inkscape:connector-curvature="0" /></g><path
       d="m 401.03627,450.53912 0.0834,0 0,-0.0798 -0.0834,0 0,0.0798 z"
       style="fill:#000000;fill-opacity:1;fill-rule:nonzero;stroke:none"
       id="path7614"
       inkscape:connector-curvature="0" /><text
       transform="scale(1.022608,-0.97789181)"
       style="font-variant:normal;font-weight:normal;font-size:6.77059412px;font-family:Arial;-inkscape-font-specification:Arial;writing-mode:lr-tb;fill:#000000;fill-opacity:1;fill-rule:nonzero;stroke:none"
       id="text7616"
       x="384.67111"
       y="-216.41464"><tspan
         x="384.67111 388.43558 392.20001 395.96448"
         y="-216.41464"
         sodipodi:role="line"
         id="tspan7618">1000</tspan></text>
<g
       id="g7620"
       transform="matrix(0.08341762,0,0,-0.07976998,26.157443,627.78801)"><path
         d="m 774,5119 37,0"
         style="fill:none;stroke:#000000;stroke-width:4;stroke-linecap:butt;stroke-linejoin:round;stroke-miterlimit:10;stroke-dasharray:none;stroke-opacity:1"
         id="path7622"
         inkscape:connector-curvature="0" /></g><path
       d="m 93.80914,219.44549 0.08342,0 0,-0.0798 -0.08342,0 0,0.0798 z"
       style="fill:#000000;fill-opacity:1;fill-rule:nonzero;stroke:none"
       id="path7624"
       inkscape:connector-curvature="0" /><g
       id="g7626"
       transform="matrix(0.08341762,0,0,-0.07976998,26.157443,627.78801)"><path
         d="m 4494,5119 -38,0"
         style="fill:none;stroke:#000000;stroke-width:4;stroke-linecap:butt;stroke-linejoin:round;stroke-miterlimit:10;stroke-dasharray:none;stroke-opacity:1"
         id="path7628"
         inkscape:connector-curvature="0" /></g><path
       d="m 397.8664,219.44549 0.0834,0 0,-0.0798 -0.0834,0 0,0.0798 z"
       style="fill:#000000;fill-opacity:1;fill-rule:nonzero;stroke:none"
       id="path7630"
       inkscape:connector-curvature="0" /><text
       transform="scale(1.1872757,-0.84226432)"
       style="font-variant:normal;font-weight:normal;font-size:7.86084318px;font-family:Arial;-inkscape-font-specification:Arial;writing-mode:lr-tb;fill:#000000;fill-opacity:1;fill-rule:nonzero;stroke:none"
       id="text7632"
       x="61.072601"
       y="-257.79565"><tspan
         x="61.072601 63.690262 68.06089 70.246201"
         y="-257.79565"
         sodipodi:role="line"
         id="tspan7634">-0.2</tspan></text>
<g
       id="g7636"
       transform="matrix(0.08341762,0,0,-0.07976998,26.157443,627.78801)"><path
         d="m 774,4752 37,0"
         style="fill:none;stroke:#000000;stroke-width:4;stroke-linecap:butt;stroke-linejoin:round;stroke-miterlimit:10;stroke-dasharray:none;stroke-opacity:1"
         id="path7638"
         inkscape:connector-curvature="0" /></g><path
       d="m 93.80914,248.72107 0.08342,0 0,-0.0798 -0.08342,0 0,0.0798 z"
       style="fill:#000000;fill-opacity:1;fill-rule:nonzero;stroke:none"
       id="path7640"
       inkscape:connector-curvature="0" /><g
       id="g7642"
       transform="matrix(0.08341762,0,0,-0.07976998,26.157443,627.78801)"><path
         d="m 4494,4752 -38,0"
         style="fill:none;stroke:#000000;stroke-width:4;stroke-linecap:butt;stroke-linejoin:round;stroke-miterlimit:10;stroke-dasharray:none;stroke-opacity:1"
         id="path7644"
         inkscape:connector-curvature="0" /></g><path
       d="m 397.8664,248.72107 0.0834,0 0,-0.0798 -0.0834,0 0,0.0798 z"
       style="fill:#000000;fill-opacity:1;fill-rule:nonzero;stroke:none"
       id="path7646"
       inkscape:connector-curvature="0" /><text
       transform="scale(1.1872757,-0.84226432)"
       style="font-variant:normal;font-weight:normal;font-size:7.86084318px;font-family:Arial;-inkscape-font-specification:Arial;writing-mode:lr-tb;fill:#000000;fill-opacity:1;fill-rule:nonzero;stroke:none"
       id="text7648"
       x="56.717697"
       y="-292.5563"><tspan
         x="56.717697 59.33535 63.705982 65.891296 70.261925"
         y="-292.5563"
         sodipodi:role="line"
         id="tspan7650">-0.15</tspan></text>
<g
       id="g7652"
       transform="matrix(0.08341762,0,0,-0.07976998,26.157443,627.78801)"><path
         d="m 774,4385 37,0"
         style="fill:none;stroke:#000000;stroke-width:4;stroke-linecap:butt;stroke-linejoin:round;stroke-miterlimit:10;stroke-dasharray:none;stroke-opacity:1"
         id="path7654"
         inkscape:connector-curvature="0" /></g><path
       d="m 93.80914,277.99666 0.08342,0 0,-0.0798 -0.08342,0 0,0.0798 z"
       style="fill:#000000;fill-opacity:1;fill-rule:nonzero;stroke:none"
       id="path7656"
       inkscape:connector-curvature="0" /><g
       id="g7658"
       transform="matrix(0.08341762,0,0,-0.07976998,26.157443,627.78801)"><path
         d="m 4494,4385 -38,0"
         style="fill:none;stroke:#000000;stroke-width:4;stroke-linecap:butt;stroke-linejoin:round;stroke-miterlimit:10;stroke-dasharray:none;stroke-opacity:1"
         id="path7660"
         inkscape:connector-curvature="0" /></g><path
       d="m 397.8664,277.99666 0.0834,0 0,-0.0798 -0.0834,0 0,0.0798 z"
       style="fill:#000000;fill-opacity:1;fill-rule:nonzero;stroke:none"
       id="path7662"
       inkscape:connector-curvature="0" /><text
       transform="scale(1.1872757,-0.84226432)"
       style="font-variant:normal;font-weight:normal;font-size:7.86084318px;font-family:Arial;-inkscape-font-specification:Arial;writing-mode:lr-tb;fill:#000000;fill-opacity:1;fill-rule:nonzero;stroke:none"
       id="text7664"
       x="61.072601"
       y="-327.30908"><tspan
         x="61.072601 63.690262 68.06089 70.246201"
         y="-327.30908"
         sodipodi:role="line"
         id="tspan7666">-0.1</tspan></text>
<g
       id="g7668"
       transform="matrix(0.08341762,0,0,-0.07976998,26.157443,627.78801)"><path
         d="m 774,4018 37,0"
         style="fill:none;stroke:#000000;stroke-width:4;stroke-linecap:butt;stroke-linejoin:round;stroke-miterlimit:10;stroke-dasharray:none;stroke-opacity:1"
         id="path7670"
         inkscape:connector-curvature="0" /></g><path
       d="m 93.80914,307.27224 0.08342,0 0,-0.0798 -0.08342,0 0,0.0798 z"
       style="fill:#000000;fill-opacity:1;fill-rule:nonzero;stroke:none"
       id="path7672"
       inkscape:connector-curvature="0" /><g
       id="g7674"
       transform="matrix(0.08341762,0,0,-0.07976998,26.157443,627.78801)"><path
         d="m 4494,4018 -38,0"
         style="fill:none;stroke:#000000;stroke-width:4;stroke-linecap:butt;stroke-linejoin:round;stroke-miterlimit:10;stroke-dasharray:none;stroke-opacity:1"
         id="path7676"
         inkscape:connector-curvature="0" /></g><path
       d="m 397.8664,307.27224 0.0834,0 0,-0.0798 -0.0834,0 0,0.0798 z"
       style="fill:#000000;fill-opacity:1;fill-rule:nonzero;stroke:none"
       id="path7678"
       inkscape:connector-curvature="0" /><text
       transform="scale(1.1872757,-0.84226432)"
       style="font-variant:normal;font-weight:normal;font-size:7.86084318px;font-family:Arial;-inkscape-font-specification:Arial;writing-mode:lr-tb;fill:#000000;fill-opacity:1;fill-rule:nonzero;stroke:none"
       id="text7680"
       x="56.717697"
       y="-362.06973"><tspan
         x="56.717697 59.33535 63.705982 65.891296 70.261925"
         y="-362.06973"
         sodipodi:role="line"
         id="tspan7682">-0.05</tspan></text>
<g
       id="g7684"
       transform="matrix(0.08341762,0,0,-0.07976998,26.157443,627.78801)"><path
         d="m 774,3652 37,0"
         style="fill:none;stroke:#000000;stroke-width:4;stroke-linecap:butt;stroke-linejoin:round;stroke-miterlimit:10;stroke-dasharray:none;stroke-opacity:1"
         id="path7686"
         inkscape:connector-curvature="0" /></g><path
       d="m 93.80914,336.46805 0.08342,0 0,-0.0798 -0.08342,0 0,0.0798 z"
       style="fill:#000000;fill-opacity:1;fill-rule:nonzero;stroke:none"
       id="path7688"
       inkscape:connector-curvature="0" /><g
       id="g7690"
       transform="matrix(0.08341762,0,0,-0.07976998,26.157443,627.78801)"><path
         d="m 4494,3652 -38,0"
         style="fill:none;stroke:#000000;stroke-width:4;stroke-linecap:butt;stroke-linejoin:round;stroke-miterlimit:10;stroke-dasharray:none;stroke-opacity:1"
         id="path7692"
         inkscape:connector-curvature="0" /></g><path
       d="m 397.8664,336.46805 0.0834,0 0,-0.0798 -0.0834,0 0,0.0798 z"
       style="fill:#000000;fill-opacity:1;fill-rule:nonzero;stroke:none"
       id="path7694"
       inkscape:connector-curvature="0" /><text
       transform="scale(1.1872757,-0.84226432)"
       style="font-variant:normal;font-weight:normal;font-size:7.86084318px;font-family:Arial;-inkscape-font-specification:Arial;writing-mode:lr-tb;fill:#000000;fill-opacity:1;fill-rule:nonzero;stroke:none"
       id="text7696"
       x="70.261925"
       y="-396.73605"><tspan
         x="70.261925"
         y="-396.73605"
         id="tspan7698">0</tspan></text>
<g
       id="g7700"
       transform="matrix(0.08341762,0,0,-0.07976998,26.157443,627.78801)"><path
         d="m 774,3285 37,0"
         style="fill:none;stroke:#000000;stroke-width:4;stroke-linecap:butt;stroke-linejoin:round;stroke-miterlimit:10;stroke-dasharray:none;stroke-opacity:1"
         id="path7702"
         inkscape:connector-curvature="0" /></g><path
       d="m 93.80914,365.74363 0.08342,0 0,-0.0798 -0.08342,0 0,0.0798 z"
       style="fill:#000000;fill-opacity:1;fill-rule:nonzero;stroke:none"
       id="path7704"
       inkscape:connector-curvature="0" /><g
       id="g7706"
       transform="matrix(0.08341762,0,0,-0.07976998,26.157443,627.78801)"><path
         d="m 4494,3285 -38,0"
         style="fill:none;stroke:#000000;stroke-width:4;stroke-linecap:butt;stroke-linejoin:round;stroke-miterlimit:10;stroke-dasharray:none;stroke-opacity:1"
         id="path7708"
         inkscape:connector-curvature="0" /></g><path
       d="m 397.8664,365.74363 0.0834,0 0,-0.0798 -0.0834,0 0,0.0798 z"
       style="fill:#000000;fill-opacity:1;fill-rule:nonzero;stroke:none"
       id="path7710"
       inkscape:connector-curvature="0" /><text
       transform="scale(1.1872757,-0.84226432)"
       style="font-variant:normal;font-weight:normal;font-size:7.86084318px;font-family:Arial;-inkscape-font-specification:Arial;writing-mode:lr-tb;fill:#000000;fill-opacity:1;fill-rule:nonzero;stroke:none"
       id="text7712"
       x="59.374657"
       y="-431.48883"><tspan
         x="59.374657 63.745289 65.930595 70.301231"
         y="-431.48883"
         sodipodi:role="line"
         id="tspan7714">0.05</tspan></text>
<g
       id="g7716"
       transform="matrix(0.08341762,0,0,-0.07976998,26.157443,627.78801)"><path
         d="m 774,2918 37,0"
         style="fill:none;stroke:#000000;stroke-width:4;stroke-linecap:butt;stroke-linejoin:round;stroke-miterlimit:10;stroke-dasharray:none;stroke-opacity:1"
         id="path7718"
         inkscape:connector-curvature="0" /></g><path
       d="m 93.80914,395.01921 0.08342,0 0,-0.0798 -0.08342,0 0,0.0798 z"
       style="fill:#000000;fill-opacity:1;fill-rule:nonzero;stroke:none"
       id="path7720"
       inkscape:connector-curvature="0" /><g
       id="g7722"
       transform="matrix(0.08341762,0,0,-0.07976998,26.157443,627.78801)"><path
         d="m 4494,2918 -38,0"
         style="fill:none;stroke:#000000;stroke-width:4;stroke-linecap:butt;stroke-linejoin:round;stroke-miterlimit:10;stroke-dasharray:none;stroke-opacity:1"
         id="path7724"
         inkscape:connector-curvature="0" /></g><path
       d="m 397.8664,395.01921 0.0834,0 0,-0.0798 -0.0834,0 0,0.0798 z"
       style="fill:#000000;fill-opacity:1;fill-rule:nonzero;stroke:none"
       id="path7726"
       inkscape:connector-curvature="0" /><text
       transform="scale(1.1872757,-0.84226432)"
       style="font-variant:normal;font-weight:normal;font-size:7.86084318px;font-family:Arial;-inkscape-font-specification:Arial;writing-mode:lr-tb;fill:#000000;fill-opacity:1;fill-rule:nonzero;stroke:none"
       id="text7728"
       x="63.729561"
       y="-466.24951"><tspan
         x="63.729561 68.100189 70.285507"
         y="-466.24951"
         sodipodi:role="line"
         id="tspan7730">0.1</tspan></text>
<g
       id="g7732"
       transform="matrix(0.08341762,0,0,-0.07976998,26.157443,627.78801)"><path
         d="m 774,2551 37,0"
         style="fill:none;stroke:#000000;stroke-width:4;stroke-linecap:butt;stroke-linejoin:round;stroke-miterlimit:10;stroke-dasharray:none;stroke-opacity:1"
         id="path7734"
         inkscape:connector-curvature="0" /></g><path
       d="m 93.80914,424.2948 0.08342,0 0,-0.0798 -0.08342,0 0,0.0798 z"
       style="fill:#000000;fill-opacity:1;fill-rule:nonzero;stroke:none"
       id="path7736"
       inkscape:connector-curvature="0" /><g
       id="g7738"
       transform="matrix(0.08341762,0,0,-0.07976998,26.157443,627.78801)"><path
         d="m 4494,2551 -38,0"
         style="fill:none;stroke:#000000;stroke-width:4;stroke-linecap:butt;stroke-linejoin:round;stroke-miterlimit:10;stroke-dasharray:none;stroke-opacity:1"
         id="path7740"
         inkscape:connector-curvature="0" /></g><path
       d="m 397.8664,424.2948 0.0834,0 0,-0.0798 -0.0834,0 0,0.0798 z"
       style="fill:#000000;fill-opacity:1;fill-rule:nonzero;stroke:none"
       id="path7742"
       inkscape:connector-curvature="0" /><text
       transform="scale(1.1872757,-0.84226432)"
       style="font-variant:normal;font-weight:normal;font-size:7.86084318px;font-family:Arial;-inkscape-font-specification:Arial;writing-mode:lr-tb;fill:#000000;fill-opacity:1;fill-rule:nonzero;stroke:none"
       id="text7744"
       x="59.374657"
       y="-501.01013"><tspan
         x="59.374657 63.745289 65.930595 70.301231"
         y="-501.01013"
         sodipodi:role="line"
         id="tspan7746">0.15</tspan></text>
<g
       id="g7748"
       transform="matrix(0.08341762,0,0,-0.07976998,26.157443,627.78801)"><path
         d="m 774,2185 37,0"
         style="fill:none;stroke:#000000;stroke-width:4;stroke-linecap:butt;stroke-linejoin:round;stroke-miterlimit:10;stroke-dasharray:none;stroke-opacity:1"
         id="path7750"
         inkscape:connector-curvature="0" /></g><path
       d="m 93.80914,453.49061 0.08342,0 0,-0.0798 -0.08342,0 0,0.0798 z"
       style="fill:#000000;fill-opacity:1;fill-rule:nonzero;stroke:none"
       id="path7752"
       inkscape:connector-curvature="0" /><g
       id="g7754"
       transform="matrix(0.08341762,0,0,-0.07976998,26.157443,627.78801)"><path
         d="m 4494,2185 -38,0"
         style="fill:none;stroke:#000000;stroke-width:4;stroke-linecap:butt;stroke-linejoin:round;stroke-miterlimit:10;stroke-dasharray:none;stroke-opacity:1"
         id="path7756"
         inkscape:connector-curvature="0" /></g><path
       d="m 397.8664,453.49061 0.0834,0 0,-0.0798 -0.0834,0 0,0.0798 z"
       style="fill:#000000;fill-opacity:1;fill-rule:nonzero;stroke:none"
       id="path7758"
       inkscape:connector-curvature="0" /><text
       transform="scale(1.1872757,-0.84226432)"
       style="font-variant:normal;font-weight:normal;font-size:7.86084318px;font-family:Arial;-inkscape-font-specification:Arial;writing-mode:lr-tb;fill:#000000;fill-opacity:1;fill-rule:nonzero;stroke:none"
       id="text7760"
       x="63.729561"
       y="-535.66858"><tspan
         x="63.729561 68.100189 70.285507"
         y="-535.66858"
         sodipodi:role="line"
         id="tspan7762">0.2</tspan></text>
<g
       id="g7764"
       transform="matrix(0.08341762,0,0,-0.07976998,26.157443,627.78801)"><path
         d="m 774,2185 3720,0"
         style="fill:none;stroke:#000000;stroke-width:4;stroke-linecap:butt;stroke-linejoin:round;stroke-miterlimit:10;stroke-dasharray:none;stroke-opacity:1"
         id="path7766"
         inkscape:connector-curvature="0" /></g><path
       d="m 401.03627,453.49061 0.0834,0 0,-0.0798 -0.0834,0 0,0.0798 z"
       style="fill:#000000;fill-opacity:1;fill-rule:nonzero;stroke:none"
       id="path7768"
       inkscape:connector-curvature="0" /><g
       id="g7770"
       transform="matrix(0.08341762,0,0,-0.07976998,26.157443,627.78801)"><path
         d="m 774,5119 3720,0"
         style="fill:none;stroke:#000000;stroke-width:4;stroke-linecap:butt;stroke-linejoin:round;stroke-miterlimit:10;stroke-dasharray:none;stroke-opacity:1"
         id="path7772"
         inkscape:connector-curvature="0" /></g><path
       d="m 401.03627,219.44549 0.0834,0 0,-0.0798 -0.0834,0 0,0.0798 z"
       style="fill:#000000;fill-opacity:1;fill-rule:nonzero;stroke:none"
       id="path7774"
       inkscape:connector-curvature="0" /><g
       id="g7776"
       transform="matrix(0.08341762,0,0,-0.07976998,26.157443,627.78801)"><path
         d="m 4494,5119 0,-2934"
         style="fill:none;stroke:#000000;stroke-width:4;stroke-linecap:butt;stroke-linejoin:round;stroke-miterlimit:10;stroke-dasharray:none;stroke-opacity:1"
         id="path7778"
         inkscape:connector-curvature="0" /></g><path
       d="m 401.03627,453.49061 0.0834,0 0,-0.0798 -0.0834,0 0,0.0798 z"
       style="fill:#000000;fill-opacity:1;fill-rule:nonzero;stroke:none"
       id="path7780"
       inkscape:connector-curvature="0" /><g
       id="g7782"
       transform="matrix(0.08341762,0,0,-0.07976998,26.157443,627.78801)"><path
         d="m 774,5119 0,-2934"
         style="fill:none;stroke:#000000;stroke-width:4;stroke-linecap:butt;stroke-linejoin:round;stroke-miterlimit:10;stroke-dasharray:none;stroke-opacity:1"
         id="path7784"
         inkscape:connector-curvature="0" /></g><path
       d="m 90.722687,453.49061 0.08342,0 0,-0.0798 -0.08342,0 0,0.0798 z"
       style="fill:#000000;fill-opacity:1;fill-rule:nonzero;stroke:none"
       id="path7786"
       inkscape:connector-curvature="0" /><text
       transform="scale(1.022608,-0.97789181)"
       style="font-variant:normal;font-weight:normal;font-size:6.77059412px;font-family:Arial;-inkscape-font-specification:Arial;writing-mode:lr-tb;fill:#000000;fill-opacity:1;fill-rule:nonzero;stroke:none"
       id="text7788"
       x="232.69836"
       y="-207.93109"><tspan
         x="232.69836 236.94029 238.44334 244.20045"
         y="-207.93109"
         sodipodi:role="line"
         id="tspan7790">Time</tspan></text>
<text
       transform="scale(1.022608,-0.97789181)"
       style="font-variant:normal;font-weight:normal;font-size:6.77059412px;font-family:Arial;-inkscape-font-specification:Arial;writing-mode:lr-tb;fill:#000000;fill-opacity:1;fill-rule:nonzero;stroke:none"
       id="text7792"
       x="182.77202"
       y="-468.8833"><tspan
         x="182.77202 188.41193 192.17638 195.94083 199.32613 203.09058 205.34518 209.10962 212.87408 214.7563 218.52078 222.2852 226.00679 227.88904 231.27434 232.77739 238.56937 242.33383 243.79018 247.55463 249.43684 253.20131 256.9238 258.806 264.59183 268.35629 272.12073 275.88516 277.31754 279.19977 282.96423 286.72867 288.6109 292.32733 296.0918"
         y="-468.8833"
         sodipodi:role="line"
         id="tspan7794">Measured and simulated model output</tspan></text>
<g
       id="g7796"
       transform="matrix(0.08341762,0,0,-0.07976998,26.157443,627.78801)"><path
         d="m 777,3726 112,789 111,-2072 112,1888 112,-1632 111,1375 112,-972 111,1522 112,-2145 112,2035 111,-1778 112,1521 111,-1265 112,1962 112,-2145 111,1742 112,-1706 111,1449 112,-1339 112,1815 111,-1998 112,1815 111,-1779 112,1375 112,-1045 111,1669 112,-2146 111,1742 112,-1632 112,1449 111,-1046"
         style="fill:none;stroke:#000000;stroke-width:4;stroke-linecap:butt;stroke-linejoin:round;stroke-miterlimit:10;stroke-dasharray:none;stroke-opacity:1"
         id="path7798"
         inkscape:connector-curvature="0" /></g><g
       id="g7800"
       transform="matrix(0.08341762,0,0,-0.07976998,26.157443,627.78801)"><path
         d="m 777,3648 112,729 111,-1798 112,2023 112,-1891 111,1500 112,-1330 111,1730 112,-1928 112,2024 111,-1849 112,1442 111,-1450 112,1699 112,-1824 111,2075 112,-1937 111,1314 112,-1387 112,1830 111,-1793 112,1884 111,-1987 112,1411 112,-1167 111,1664 112,-1911 111,1754 112,-1575 112,1303 111,-1110"
         style="fill:none;stroke:#7f7f7f;stroke-width:4;stroke-linecap:butt;stroke-linejoin:round;stroke-miterlimit:10;stroke-dasharray:none;stroke-opacity:1"
         id="path7802"
         inkscape:connector-curvature="0" /></g></g></svg>