<?xml version="1.0" encoding="UTF-8" standalone="no"?>
<!-- Created with Inkscape (http://www.inkscape.org/) -->

<svg
   xmlns:dc="http://purl.org/dc/elements/1.1/"
   xmlns:cc="http://creativecommons.org/ns#"
   xmlns:rdf="http://www.w3.org/1999/02/22-rdf-syntax-ns#"
   xmlns:svg="http://www.w3.org/2000/svg"
   xmlns="http://www.w3.org/2000/svg"
   xmlns:sodipodi="http://sodipodi.sourceforge.net/DTD/sodipodi-0.dtd"
   xmlns:inkscape="http://www.inkscape.org/namespaces/inkscape"
   id="svg6348"
   version="1.1"
   inkscape:version="0.91 r13725"
   xml:space="preserve"
   width="462.00003"
   height="235"
   viewBox="0 0 462.00003 235"
   sodipodi:docname="3-Error-EKF.svg"><metadata
     id="metadata6354"><rdf:RDF><cc:Work
         rdf:about=""><dc:format>image/svg+xml</dc:format><dc:type
           rdf:resource="http://purl.org/dc/dcmitype/StillImage" /><dc:title></dc:title></cc:Work></rdf:RDF></metadata><defs
     id="defs6352"><clipPath
       clipPathUnits="userSpaceOnUse"
       id="clipPath6364"><path
         d="m 870,2625 0,3151 4201,0 0,-3151 -4201,0 z"
         id="path6366"
         inkscape:connector-curvature="0" /></clipPath><clipPath
       clipPathUnits="userSpaceOnUse"
       id="clipPath6600"><path
         d="m 1417,2962 0,2574 3264,0 0,-2574 -3264,0 z"
         id="path6602"
         inkscape:connector-curvature="0" /></clipPath><clipPath
       clipPathUnits="userSpaceOnUse"
       id="clipPath6610"><path
         d="m 870,2625 0,3151 4201,0 0,-3151 -4201,0 z"
         id="path6612"
         inkscape:connector-curvature="0" /></clipPath></defs><sodipodi:namedview
     pagecolor="#ffffff"
     bordercolor="#666666"
     borderopacity="1"
     objecttolerance="10"
     gridtolerance="10"
     guidetolerance="10"
     inkscape:pageopacity="0"
     inkscape:pageshadow="2"
     inkscape:window-width="1366"
     inkscape:window-height="705"
     id="namedview6350"
     showgrid="false"
     fit-margin-top="0"
     fit-margin-left="0"
     fit-margin-right="0"
     fit-margin-bottom="0"
     inkscape:zoom="0.22422803"
     inkscape:cx="223.47534"
     inkscape:cy="185.15134"
     inkscape:window-x="-8"
     inkscape:window-y="-8"
     inkscape:window-maximized="1"
     inkscape:current-layer="g6356" /><g
     id="g6356"
     inkscape:groupmode="layer"
     inkscape:label="3-Error-EKF"
     transform="matrix(0.125,0,0,-0.125,-148.39966,576.09866)"><g
       id="g6358"
       transform="matrix(1.0460374,0,0,0.66247071,-54.655426,921.04632)" /><g
       id="g6360"
       transform="matrix(1.0460374,0,0,0.66247071,-54.655426,921.04632)"><g
         id="g6362"
         clip-path="url(#clipPath6364)"><path
           d="m 1417.5,2970.01 3255.01,0 0,2565.01 -3255.01,0 0,-2565.01 z"
           style="fill:none;stroke:#ffffff;stroke-width:5.00001001;stroke-linecap:butt;stroke-linejoin:round;stroke-miterlimit:10;stroke-dasharray:none;stroke-opacity:1"
           id="path6368"
           inkscape:connector-curvature="0" /><path
           d="m 1417.5,2970.01 0,2565"
           style="fill:none;stroke:#000000;stroke-width:3.33333993;stroke-linecap:butt;stroke-linejoin:round;stroke-miterlimit:10;stroke-dasharray:5, 40;stroke-dashoffset:0;stroke-opacity:1"
           id="path6370"
           inkscape:connector-curvature="0" /><path
           d="m 1417.5,5535.01 0,0"
           style="fill:none;stroke:#000000;stroke-width:3.33333993;stroke-linecap:butt;stroke-linejoin:round;stroke-miterlimit:10;stroke-dasharray:5, 40;stroke-dashoffset:0;stroke-opacity:1"
           id="path6372"
           inkscape:connector-curvature="0" /><path
           d="m 1957.5,2970.01 0,2565"
           style="fill:none;stroke:#000000;stroke-width:3.33333993;stroke-linecap:butt;stroke-linejoin:round;stroke-miterlimit:10;stroke-dasharray:5, 40;stroke-dashoffset:0;stroke-opacity:1"
           id="path6374"
           inkscape:connector-curvature="0" /><path
           d="m 1957.5,5535.01 0,0"
           style="fill:none;stroke:#000000;stroke-width:3.33333993;stroke-linecap:butt;stroke-linejoin:round;stroke-miterlimit:10;stroke-dasharray:5, 40;stroke-dashoffset:0;stroke-opacity:1"
           id="path6376"
           inkscape:connector-curvature="0" /><path
           d="m 2497.51,2970.01 0,2565"
           style="fill:none;stroke:#000000;stroke-width:3.33333993;stroke-linecap:butt;stroke-linejoin:round;stroke-miterlimit:10;stroke-dasharray:5, 40;stroke-dashoffset:0;stroke-opacity:1"
           id="path6378"
           inkscape:connector-curvature="0" /><path
           d="m 2497.51,5535.01 0,0"
           style="fill:none;stroke:#000000;stroke-width:3.33333993;stroke-linecap:butt;stroke-linejoin:round;stroke-miterlimit:10;stroke-dasharray:5, 40;stroke-dashoffset:0;stroke-opacity:1"
           id="path6380"
           inkscape:connector-curvature="0" /><path
           d="m 3045.01,2970.01 0,2565"
           style="fill:none;stroke:#000000;stroke-width:3.33333993;stroke-linecap:butt;stroke-linejoin:round;stroke-miterlimit:10;stroke-dasharray:5, 40;stroke-dashoffset:0;stroke-opacity:1"
           id="path6382"
           inkscape:connector-curvature="0" /><path
           d="m 3045.01,5535.01 0,0"
           style="fill:none;stroke:#000000;stroke-width:3.33333993;stroke-linecap:butt;stroke-linejoin:round;stroke-miterlimit:10;stroke-dasharray:5, 40;stroke-dashoffset:0;stroke-opacity:1"
           id="path6384"
           inkscape:connector-curvature="0" /><path
           d="m 3585.01,2970.01 0,2565"
           style="fill:none;stroke:#000000;stroke-width:3.33333993;stroke-linecap:butt;stroke-linejoin:round;stroke-miterlimit:10;stroke-dasharray:5, 40;stroke-dashoffset:0;stroke-opacity:1"
           id="path6386"
           inkscape:connector-curvature="0" /><path
           d="m 3585.01,5535.01 0,0"
           style="fill:none;stroke:#000000;stroke-width:3.33333993;stroke-linecap:butt;stroke-linejoin:round;stroke-miterlimit:10;stroke-dasharray:5, 40;stroke-dashoffset:0;stroke-opacity:1"
           id="path6388"
           inkscape:connector-curvature="0" /><path
           d="m 4125.01,2970.01 0,2565"
           style="fill:none;stroke:#000000;stroke-width:3.33333993;stroke-linecap:butt;stroke-linejoin:round;stroke-miterlimit:10;stroke-dasharray:5, 40;stroke-dashoffset:0;stroke-opacity:1"
           id="path6390"
           inkscape:connector-curvature="0" /><path
           d="m 4125.01,5535.01 0,0"
           style="fill:none;stroke:#000000;stroke-width:3.33333993;stroke-linecap:butt;stroke-linejoin:round;stroke-miterlimit:10;stroke-dasharray:5, 40;stroke-dashoffset:0;stroke-opacity:1"
           id="path6392"
           inkscape:connector-curvature="0" /><path
           d="m 4672.51,2970.01 0,2565"
           style="fill:none;stroke:#000000;stroke-width:3.33333993;stroke-linecap:butt;stroke-linejoin:round;stroke-miterlimit:10;stroke-dasharray:5, 40;stroke-dashoffset:0;stroke-opacity:1"
           id="path6394"
           inkscape:connector-curvature="0" /><path
           d="m 4672.51,5535.01 0,0"
           style="fill:none;stroke:#000000;stroke-width:3.33333993;stroke-linecap:butt;stroke-linejoin:round;stroke-miterlimit:10;stroke-dasharray:5, 40;stroke-dashoffset:0;stroke-opacity:1"
           id="path6396"
           inkscape:connector-curvature="0" /><path
           d="m 1417.5,2970.01 3255.01,0"
           style="fill:none;stroke:#000000;stroke-width:3.33333993;stroke-linecap:butt;stroke-linejoin:round;stroke-miterlimit:10;stroke-dasharray:5, 40;stroke-dashoffset:0;stroke-opacity:1"
           id="path6398"
           inkscape:connector-curvature="0" /><path
           d="m 4672.51,2970.01 0,0"
           style="fill:none;stroke:#000000;stroke-width:3.33333993;stroke-linecap:butt;stroke-linejoin:round;stroke-miterlimit:10;stroke-dasharray:5, 40;stroke-dashoffset:0;stroke-opacity:1"
           id="path6400"
           inkscape:connector-curvature="0" /><path
           d="m 1417.5,3397.51 3255.01,0"
           style="fill:none;stroke:#000000;stroke-width:3.33333993;stroke-linecap:butt;stroke-linejoin:round;stroke-miterlimit:10;stroke-dasharray:5, 40;stroke-dashoffset:0;stroke-opacity:1"
           id="path6402"
           inkscape:connector-curvature="0" /><path
           d="m 4672.51,3397.51 0,0"
           style="fill:none;stroke:#000000;stroke-width:3.33333993;stroke-linecap:butt;stroke-linejoin:round;stroke-miterlimit:10;stroke-dasharray:5, 40;stroke-dashoffset:0;stroke-opacity:1"
           id="path6404"
           inkscape:connector-curvature="0" /><path
           d="m 1417.5,3825.01 3255.01,0"
           style="fill:none;stroke:#000000;stroke-width:3.33333993;stroke-linecap:butt;stroke-linejoin:round;stroke-miterlimit:10;stroke-dasharray:5, 40;stroke-dashoffset:0;stroke-opacity:1"
           id="path6406"
           inkscape:connector-curvature="0" /><path
           d="m 4672.51,3825.01 0,0"
           style="fill:none;stroke:#000000;stroke-width:3.33333993;stroke-linecap:butt;stroke-linejoin:round;stroke-miterlimit:10;stroke-dasharray:5, 40;stroke-dashoffset:0;stroke-opacity:1"
           id="path6408"
           inkscape:connector-curvature="0" /><path
           d="m 1417.5,4252.51 3255.01,0"
           style="fill:none;stroke:#000000;stroke-width:3.33333993;stroke-linecap:butt;stroke-linejoin:round;stroke-miterlimit:10;stroke-dasharray:5, 40;stroke-dashoffset:0;stroke-opacity:1"
           id="path6410"
           inkscape:connector-curvature="0" /><path
           d="m 4672.51,4252.51 0,0"
           style="fill:none;stroke:#000000;stroke-width:3.33333993;stroke-linecap:butt;stroke-linejoin:round;stroke-miterlimit:10;stroke-dasharray:5, 40;stroke-dashoffset:0;stroke-opacity:1"
           id="path6412"
           inkscape:connector-curvature="0" /><path
           d="m 1417.5,4680.01 3255.01,0"
           style="fill:none;stroke:#000000;stroke-width:3.33333993;stroke-linecap:butt;stroke-linejoin:round;stroke-miterlimit:10;stroke-dasharray:5, 40;stroke-dashoffset:0;stroke-opacity:1"
           id="path6414"
           inkscape:connector-curvature="0" /><path
           d="m 4672.51,4680.01 0,0"
           style="fill:none;stroke:#000000;stroke-width:3.33333993;stroke-linecap:butt;stroke-linejoin:round;stroke-miterlimit:10;stroke-dasharray:5, 40;stroke-dashoffset:0;stroke-opacity:1"
           id="path6416"
           inkscape:connector-curvature="0" /><path
           d="m 1417.5,5107.51 3255.01,0"
           style="fill:none;stroke:#000000;stroke-width:3.33333993;stroke-linecap:butt;stroke-linejoin:round;stroke-miterlimit:10;stroke-dasharray:5, 40;stroke-dashoffset:0;stroke-opacity:1"
           id="path6418"
           inkscape:connector-curvature="0" /><path
           d="m 4672.51,5107.51 0,0"
           style="fill:none;stroke:#000000;stroke-width:3.33333993;stroke-linecap:butt;stroke-linejoin:round;stroke-miterlimit:10;stroke-dasharray:5, 40;stroke-dashoffset:0;stroke-opacity:1"
           id="path6420"
           inkscape:connector-curvature="0" /><path
           d="m 1417.5,5535.01 3255.01,0"
           style="fill:none;stroke:#000000;stroke-width:3.33333993;stroke-linecap:butt;stroke-linejoin:round;stroke-miterlimit:10;stroke-dasharray:5, 40;stroke-dashoffset:0;stroke-opacity:1"
           id="path6422"
           inkscape:connector-curvature="0" /><path
           d="m 4672.51,5535.01 0,0"
           style="fill:none;stroke:#000000;stroke-width:3.33333993;stroke-linecap:butt;stroke-linejoin:round;stroke-miterlimit:10;stroke-dasharray:5, 40;stroke-dashoffset:0;stroke-opacity:1"
           id="path6424"
           inkscape:connector-curvature="0" /><path
           d="m 1417.5,5535.01 3255.01,0"
           style="fill:none;stroke:#000000;stroke-width:5.00001001;stroke-linecap:butt;stroke-linejoin:round;stroke-miterlimit:10;stroke-dasharray:none;stroke-opacity:1"
           id="path6426"
           inkscape:connector-curvature="0" /><path
           d="m 1417.5,2970.01 3255.01,0"
           style="fill:none;stroke:#000000;stroke-width:5.00001001;stroke-linecap:butt;stroke-linejoin:round;stroke-miterlimit:10;stroke-dasharray:none;stroke-opacity:1"
           id="path6428"
           inkscape:connector-curvature="0" /><path
           d="m 4672.51,2970.01 0,2565"
           style="fill:none;stroke:#000000;stroke-width:5.00001001;stroke-linecap:butt;stroke-linejoin:round;stroke-miterlimit:10;stroke-dasharray:none;stroke-opacity:1"
           id="path6430"
           inkscape:connector-curvature="0" /><path
           d="m 1417.5,2970.01 0,2565"
           style="fill:none;stroke:#000000;stroke-width:5.00001001;stroke-linecap:butt;stroke-linejoin:round;stroke-miterlimit:10;stroke-dasharray:none;stroke-opacity:1"
           id="path6432"
           inkscape:connector-curvature="0" /><path
           d="m 1417.5,2970.01 3255.01,0"
           style="fill:none;stroke:#000000;stroke-width:5.00001001;stroke-linecap:butt;stroke-linejoin:round;stroke-miterlimit:10;stroke-dasharray:none;stroke-opacity:1"
           id="path6434"
           inkscape:connector-curvature="0" /><path
           d="m 1417.5,2970.01 0,2565"
           style="fill:none;stroke:#000000;stroke-width:5.00001001;stroke-linecap:butt;stroke-linejoin:round;stroke-miterlimit:10;stroke-dasharray:none;stroke-opacity:1"
           id="path6436"
           inkscape:connector-curvature="0" /><path
           d="m 1417.5,2970.01 0,37.5"
           style="fill:none;stroke:#000000;stroke-width:5.00001001;stroke-linecap:butt;stroke-linejoin:round;stroke-miterlimit:10;stroke-dasharray:none;stroke-opacity:1"
           id="path6438"
           inkscape:connector-curvature="0" /><path
           d="m 1417.5,5535.01 0,-30"
           style="fill:none;stroke:#000000;stroke-width:5.00001001;stroke-linecap:butt;stroke-linejoin:round;stroke-miterlimit:10;stroke-dasharray:none;stroke-opacity:1"
           id="path6440"
           inkscape:connector-curvature="0" /><g
           id="g6442"
           transform="scale(10,10)"><text
             transform="matrix(1,0,0,-1,139.5,285.001)"
             style="font-variant:normal;font-weight:normal;font-size:10px;font-family:Helvetica;-inkscape-font-specification:Helvetica;writing-mode:lr-tb;fill:#000000;fill-opacity:1;fill-rule:nonzero;stroke:none"
             id="text6444"><tspan
               x="0"
               y="0"
               id="tspan6446">0</tspan></text>
</g><path
           d="m 1957.5,2970.01 0,37.5"
           style="fill:none;stroke:#000000;stroke-width:5.00001001;stroke-linecap:butt;stroke-linejoin:round;stroke-miterlimit:10;stroke-dasharray:none;stroke-opacity:1"
           id="path6448"
           inkscape:connector-curvature="0" /><path
           d="m 1957.5,5535.01 0,-30"
           style="fill:none;stroke:#000000;stroke-width:5.00001001;stroke-linecap:butt;stroke-linejoin:round;stroke-miterlimit:10;stroke-dasharray:none;stroke-opacity:1"
           id="path6450"
           inkscape:connector-curvature="0" /><g
           id="g6452"
           transform="scale(10,10)"><text
             transform="matrix(1,0,0,-1,193.5,285.001)"
             style="font-variant:normal;font-weight:normal;font-size:10px;font-family:Helvetica;-inkscape-font-specification:Helvetica;writing-mode:lr-tb;fill:#000000;fill-opacity:1;fill-rule:nonzero;stroke:none"
             id="text6454"><tspan
               x="0"
               y="0"
               id="tspan6456">5</tspan></text>
</g><path
           d="m 2497.51,2970.01 0,37.5"
           style="fill:none;stroke:#000000;stroke-width:5.00001001;stroke-linecap:butt;stroke-linejoin:round;stroke-miterlimit:10;stroke-dasharray:none;stroke-opacity:1"
           id="path6458"
           inkscape:connector-curvature="0" /><path
           d="m 2497.51,5535.01 0,-30"
           style="fill:none;stroke:#000000;stroke-width:5.00001001;stroke-linecap:butt;stroke-linejoin:round;stroke-miterlimit:10;stroke-dasharray:none;stroke-opacity:1"
           id="path6460"
           inkscape:connector-curvature="0" /><g
           id="g6462"
           transform="scale(10,10)"><text
             transform="matrix(1,0,0,-1,244.501,285.001)"
             style="font-variant:normal;font-weight:normal;font-size:10px;font-family:Helvetica;-inkscape-font-specification:Helvetica;writing-mode:lr-tb;fill:#000000;fill-opacity:1;fill-rule:nonzero;stroke:none"
             id="text6464"><tspan
               x="0 5.5599999"
               y="0"
               sodipodi:role="line"
               id="tspan6466">10</tspan></text>
</g><path
           d="m 3045.01,2970.01 0,37.5"
           style="fill:none;stroke:#000000;stroke-width:5.00001001;stroke-linecap:butt;stroke-linejoin:round;stroke-miterlimit:10;stroke-dasharray:none;stroke-opacity:1"
           id="path6468"
           inkscape:connector-curvature="0" /><path
           d="m 3045.01,5535.01 0,-30"
           style="fill:none;stroke:#000000;stroke-width:5.00001001;stroke-linecap:butt;stroke-linejoin:round;stroke-miterlimit:10;stroke-dasharray:none;stroke-opacity:1"
           id="path6470"
           inkscape:connector-curvature="0" /><g
           id="g6472"
           transform="scale(10,10)"><text
             transform="matrix(1,0,0,-1,299.251,285.001)"
             style="font-variant:normal;font-weight:normal;font-size:10px;font-family:Helvetica;-inkscape-font-specification:Helvetica;writing-mode:lr-tb;fill:#000000;fill-opacity:1;fill-rule:nonzero;stroke:none"
             id="text6474"><tspan
               x="0 5.5599999"
               y="0"
               sodipodi:role="line"
               id="tspan6476">15</tspan></text>
</g><path
           d="m 3585.01,2970.01 0,37.5"
           style="fill:none;stroke:#000000;stroke-width:5.00001001;stroke-linecap:butt;stroke-linejoin:round;stroke-miterlimit:10;stroke-dasharray:none;stroke-opacity:1"
           id="path6478"
           inkscape:connector-curvature="0" /><path
           d="m 3585.01,5535.01 0,-30"
           style="fill:none;stroke:#000000;stroke-width:5.00001001;stroke-linecap:butt;stroke-linejoin:round;stroke-miterlimit:10;stroke-dasharray:none;stroke-opacity:1"
           id="path6480"
           inkscape:connector-curvature="0" /><g
           id="g6482"
           transform="scale(10,10)"><text
             transform="matrix(1,0,0,-1,353.251,285.001)"
             style="font-variant:normal;font-weight:normal;font-size:10px;font-family:Helvetica;-inkscape-font-specification:Helvetica;writing-mode:lr-tb;fill:#000000;fill-opacity:1;fill-rule:nonzero;stroke:none"
             id="text6484"><tspan
               x="0 5.5599999"
               y="0"
               sodipodi:role="line"
               id="tspan6486">20</tspan></text>
</g><path
           d="m 4125.01,2970.01 0,37.5"
           style="fill:none;stroke:#000000;stroke-width:5.00001001;stroke-linecap:butt;stroke-linejoin:round;stroke-miterlimit:10;stroke-dasharray:none;stroke-opacity:1"
           id="path6488"
           inkscape:connector-curvature="0" /><path
           d="m 4125.01,5535.01 0,-30"
           style="fill:none;stroke:#000000;stroke-width:5.00001001;stroke-linecap:butt;stroke-linejoin:round;stroke-miterlimit:10;stroke-dasharray:none;stroke-opacity:1"
           id="path6490"
           inkscape:connector-curvature="0" /><g
           id="g6492"
           transform="scale(10,10)"><text
             transform="matrix(1,0,0,-1,407.251,285.001)"
             style="font-variant:normal;font-weight:normal;font-size:10px;font-family:Helvetica;-inkscape-font-specification:Helvetica;writing-mode:lr-tb;fill:#000000;fill-opacity:1;fill-rule:nonzero;stroke:none"
             id="text6494"><tspan
               x="0 5.5599999"
               y="0"
               sodipodi:role="line"
               id="tspan6496">25</tspan></text>
</g><path
           d="m 4672.51,2970.01 0,37.5"
           style="fill:none;stroke:#000000;stroke-width:5.00001001;stroke-linecap:butt;stroke-linejoin:round;stroke-miterlimit:10;stroke-dasharray:none;stroke-opacity:1"
           id="path6498"
           inkscape:connector-curvature="0" /><path
           d="m 4672.51,5535.01 0,-30"
           style="fill:none;stroke:#000000;stroke-width:5.00001001;stroke-linecap:butt;stroke-linejoin:round;stroke-miterlimit:10;stroke-dasharray:none;stroke-opacity:1"
           id="path6500"
           inkscape:connector-curvature="0" /><g
           id="g6502"
           transform="scale(10,10)"><text
             transform="matrix(1,0,0,-1,462.001,285.001)"
             style="font-variant:normal;font-weight:normal;font-size:10px;font-family:Helvetica;-inkscape-font-specification:Helvetica;writing-mode:lr-tb;fill:#000000;fill-opacity:1;fill-rule:nonzero;stroke:none"
             id="text6504"><tspan
               x="0 5.5599999"
               y="0"
               sodipodi:role="line"
               id="tspan6506">30</tspan></text>
</g><path
           d="m 1417.5,2970.01 30,0"
           style="fill:none;stroke:#000000;stroke-width:5.00001001;stroke-linecap:butt;stroke-linejoin:round;stroke-miterlimit:10;stroke-dasharray:none;stroke-opacity:1"
           id="path6508"
           inkscape:connector-curvature="0" /><path
           d="m 4672.51,2970.01 -37.5,0"
           style="fill:none;stroke:#000000;stroke-width:5.00001001;stroke-linecap:butt;stroke-linejoin:round;stroke-miterlimit:10;stroke-dasharray:none;stroke-opacity:1"
           id="path6510"
           inkscape:connector-curvature="0" /><g
           id="g6512"
           transform="scale(10,10)"><text
             transform="matrix(1,0,0,-1,133.5,293.251)"
             style="font-variant:normal;font-weight:normal;font-size:10px;font-family:Helvetica;-inkscape-font-specification:Helvetica;writing-mode:lr-tb;fill:#000000;fill-opacity:1;fill-rule:nonzero;stroke:none"
             id="text6514"><tspan
               x="0"
               y="0"
               id="tspan6516">0</tspan></text>
</g><path
           d="m 1417.5,3397.51 30,0"
           style="fill:none;stroke:#000000;stroke-width:5.00001001;stroke-linecap:butt;stroke-linejoin:round;stroke-miterlimit:10;stroke-dasharray:none;stroke-opacity:1"
           id="path6518"
           inkscape:connector-curvature="0" /><path
           d="m 4672.51,3397.51 -37.5,0"
           style="fill:none;stroke:#000000;stroke-width:5.00001001;stroke-linecap:butt;stroke-linejoin:round;stroke-miterlimit:10;stroke-dasharray:none;stroke-opacity:1"
           id="path6520"
           inkscape:connector-curvature="0" /><g
           id="g6522"
           transform="scale(10,10)"><text
             transform="matrix(1,0,0,-1,133.5,336.001)"
             style="font-variant:normal;font-weight:normal;font-size:10px;font-family:Helvetica;-inkscape-font-specification:Helvetica;writing-mode:lr-tb;fill:#000000;fill-opacity:1;fill-rule:nonzero;stroke:none"
             id="text6524"><tspan
               x="0"
               y="0"
               id="tspan6526">1</tspan></text>
</g><path
           d="m 1417.5,3825.01 30,0"
           style="fill:none;stroke:#000000;stroke-width:5.00001001;stroke-linecap:butt;stroke-linejoin:round;stroke-miterlimit:10;stroke-dasharray:none;stroke-opacity:1"
           id="path6528"
           inkscape:connector-curvature="0" /><path
           d="m 4672.51,3825.01 -37.5,0"
           style="fill:none;stroke:#000000;stroke-width:5.00001001;stroke-linecap:butt;stroke-linejoin:round;stroke-miterlimit:10;stroke-dasharray:none;stroke-opacity:1"
           id="path6530"
           inkscape:connector-curvature="0" /><g
           id="g6532"
           transform="scale(10,10)"><text
             transform="matrix(1,0,0,-1,133.5,378.751)"
             style="font-variant:normal;font-weight:normal;font-size:10px;font-family:Helvetica;-inkscape-font-specification:Helvetica;writing-mode:lr-tb;fill:#000000;fill-opacity:1;fill-rule:nonzero;stroke:none"
             id="text6534"><tspan
               x="0"
               y="0"
               id="tspan6536">2</tspan></text>
</g><path
           d="m 1417.5,4252.51 30,0"
           style="fill:none;stroke:#000000;stroke-width:5.00001001;stroke-linecap:butt;stroke-linejoin:round;stroke-miterlimit:10;stroke-dasharray:none;stroke-opacity:1"
           id="path6538"
           inkscape:connector-curvature="0" /><path
           d="m 4672.51,4252.51 -37.5,0"
           style="fill:none;stroke:#000000;stroke-width:5.00001001;stroke-linecap:butt;stroke-linejoin:round;stroke-miterlimit:10;stroke-dasharray:none;stroke-opacity:1"
           id="path6540"
           inkscape:connector-curvature="0" /><g
           id="g6542"
           transform="scale(10,10)"><text
             transform="matrix(1,0,0,-1,133.5,421.501)"
             style="font-variant:normal;font-weight:normal;font-size:10px;font-family:Helvetica;-inkscape-font-specification:Helvetica;writing-mode:lr-tb;fill:#000000;fill-opacity:1;fill-rule:nonzero;stroke:none"
             id="text6544"><tspan
               x="0"
               y="0"
               id="tspan6546">3</tspan></text>
</g><path
           d="m 1417.5,4680.01 30,0"
           style="fill:none;stroke:#000000;stroke-width:5.00001001;stroke-linecap:butt;stroke-linejoin:round;stroke-miterlimit:10;stroke-dasharray:none;stroke-opacity:1"
           id="path6548"
           inkscape:connector-curvature="0" /><path
           d="m 4672.51,4680.01 -37.5,0"
           style="fill:none;stroke:#000000;stroke-width:5.00001001;stroke-linecap:butt;stroke-linejoin:round;stroke-miterlimit:10;stroke-dasharray:none;stroke-opacity:1"
           id="path6550"
           inkscape:connector-curvature="0" /><g
           id="g6552"
           transform="scale(10,10)"><text
             transform="matrix(1,0,0,-1,133.5,464.251)"
             style="font-variant:normal;font-weight:normal;font-size:10px;font-family:Helvetica;-inkscape-font-specification:Helvetica;writing-mode:lr-tb;fill:#000000;fill-opacity:1;fill-rule:nonzero;stroke:none"
             id="text6554"><tspan
               x="0"
               y="0"
               id="tspan6556">4</tspan></text>
</g><path
           d="m 1417.5,5107.51 30,0"
           style="fill:none;stroke:#000000;stroke-width:5.00001001;stroke-linecap:butt;stroke-linejoin:round;stroke-miterlimit:10;stroke-dasharray:none;stroke-opacity:1"
           id="path6558"
           inkscape:connector-curvature="0" /><path
           d="m 4672.51,5107.51 -37.5,0"
           style="fill:none;stroke:#000000;stroke-width:5.00001001;stroke-linecap:butt;stroke-linejoin:round;stroke-miterlimit:10;stroke-dasharray:none;stroke-opacity:1"
           id="path6560"
           inkscape:connector-curvature="0" /><g
           id="g6562"
           transform="scale(10,10)"><text
             transform="matrix(1,0,0,-1,133.5,507.001)"
             style="font-variant:normal;font-weight:normal;font-size:10px;font-family:Helvetica;-inkscape-font-specification:Helvetica;writing-mode:lr-tb;fill:#000000;fill-opacity:1;fill-rule:nonzero;stroke:none"
             id="text6564"><tspan
               x="0"
               y="0"
               id="tspan6566">5</tspan></text>
</g><path
           d="m 1417.5,5535.01 30,0"
           style="fill:none;stroke:#000000;stroke-width:5.00001001;stroke-linecap:butt;stroke-linejoin:round;stroke-miterlimit:10;stroke-dasharray:none;stroke-opacity:1"
           id="path6568"
           inkscape:connector-curvature="0" /><path
           d="m 4672.51,5535.01 -37.5,0"
           style="fill:none;stroke:#000000;stroke-width:5.00001001;stroke-linecap:butt;stroke-linejoin:round;stroke-miterlimit:10;stroke-dasharray:none;stroke-opacity:1"
           id="path6570"
           inkscape:connector-curvature="0" /><g
           id="g6572"
           transform="scale(10,10)"><text
             transform="matrix(1,0,0,-1,133.5,549.751)"
             style="font-variant:normal;font-weight:normal;font-size:10px;font-family:Helvetica;-inkscape-font-specification:Helvetica;writing-mode:lr-tb;fill:#000000;fill-opacity:1;fill-rule:nonzero;stroke:none"
             id="text6574"><tspan
               x="0"
               y="0"
               id="tspan6576">6</tspan></text>
</g><path
           d="m 1417.5,5535.01 3255.01,0"
           style="fill:none;stroke:#000000;stroke-width:5.00001001;stroke-linecap:butt;stroke-linejoin:round;stroke-miterlimit:10;stroke-dasharray:none;stroke-opacity:1"
           id="path6578"
           inkscape:connector-curvature="0" /><path
           d="m 1417.5,2970.01 3255.01,0"
           style="fill:none;stroke:#000000;stroke-width:5.00001001;stroke-linecap:butt;stroke-linejoin:round;stroke-miterlimit:10;stroke-dasharray:none;stroke-opacity:1"
           id="path6580"
           inkscape:connector-curvature="0" /><path
           d="m 4672.51,2970.01 0,2565"
           style="fill:none;stroke:#000000;stroke-width:5.00001001;stroke-linecap:butt;stroke-linejoin:round;stroke-miterlimit:10;stroke-dasharray:none;stroke-opacity:1"
           id="path6582"
           inkscape:connector-curvature="0" /><path
           d="m 1417.5,2970.01 0,2565"
           style="fill:none;stroke:#000000;stroke-width:5.00001001;stroke-linecap:butt;stroke-linejoin:round;stroke-miterlimit:10;stroke-dasharray:none;stroke-opacity:1"
           id="path6584"
           inkscape:connector-curvature="0" /><g
           id="g6586"
           transform="scale(10,10)"><text
             transform="matrix(1,0,0,-1,284.251,273.001)"
             style="font-variant:normal;font-weight:normal;font-size:10px;font-family:Helvetica;-inkscape-font-specification:Helvetica;writing-mode:lr-tb;fill:#000000;fill-opacity:1;fill-rule:nonzero;stroke:none"
             id="text6588"><tspan
               x="0 6.1100001 8.3299999 16.66 22.219999 25 33.330002 35.549999"
               y="0"
               sodipodi:role="line"
               id="tspan6590">Time/min</tspan></text>
<text
             transform="matrix(0,1,1,0,126,408.751)"
             style="font-variant:normal;font-weight:normal;font-size:10px;font-family:Helvetica;-inkscape-font-specification:Helvetica;writing-mode:lr-tb;fill:#000000;fill-opacity:1;fill-rule:nonzero;stroke:none"
             id="text6592"><tspan
               x="0 6.6700001 10 13.33 18.889999 22.219999 25"
               y="0"
               sodipodi:role="line"
               id="tspan6594">Error/%</tspan></text>
</g></g></g><g
       id="g6596"
       transform="matrix(1.0460374,0,0,0.66247071,-54.655426,921.04632)"><g
         id="g6598"
         clip-path="url(#clipPath6600)"><path
           d="m 1522.5,2970.01 105,1215 112.5,-585 105,-457.5 112.5,742.5 105,-142.5 112.5,157.5 105.01,-7.5 112.5,0 105,-37.5 112.5,0 105,-412.5 112.5,450 105,-82.5 112.5,307.5 105,345 105,-105 112.5,52.5 105,165 112.5,-45 105,232.5 112.5,75 105,-90 112.5,142.5 105,180 112.5,-112.5 105,375 112.5,-67.5 105,82.5 112.5,-67.5"
           style="fill:none;stroke:#000000;stroke-width:5.00001001;stroke-linecap:butt;stroke-linejoin:round;stroke-miterlimit:10;stroke-dasharray:none;stroke-opacity:1"
           id="path6604"
           inkscape:connector-curvature="0" /></g></g><g
       id="g6606"
       transform="matrix(1.0460374,0,0,0.66247071,-54.655426,921.04632)"><g
         id="g6608"
         clip-path="url(#clipPath6610)"><path
           d="m 1492.5,2940.01 60,0 0,60 -60,0 0,-60 z"
           style="fill:#ff0000;fill-opacity:1;fill-rule:evenodd;stroke:none"
           id="path6614"
           inkscape:connector-curvature="0" /><path
           d="m 1492.5,2940.01 60,0 0,60 -60,0 0,-60 z"
           style="fill:none;stroke:#000000;stroke-width:5.00001001;stroke-linecap:butt;stroke-linejoin:miter;stroke-miterlimit:10;stroke-dasharray:none;stroke-opacity:1"
           id="path6616"
           inkscape:connector-curvature="0" /><path
           d="m 1597.5,4155.01 60,0 0,60 -60,0 0,-60 z"
           style="fill:#ff0000;fill-opacity:1;fill-rule:evenodd;stroke:none"
           id="path6618"
           inkscape:connector-curvature="0" /><path
           d="m 1597.5,4155.01 60,0 0,60 -60,0 0,-60 z"
           style="fill:none;stroke:#000000;stroke-width:5.00001001;stroke-linecap:butt;stroke-linejoin:miter;stroke-miterlimit:10;stroke-dasharray:none;stroke-opacity:1"
           id="path6620"
           inkscape:connector-curvature="0" /><path
           d="m 1710,3570.01 60,0 0,60 -60,0 0,-60 z"
           style="fill:#ff0000;fill-opacity:1;fill-rule:evenodd;stroke:none"
           id="path6622"
           inkscape:connector-curvature="0" /><path
           d="m 1710,3570.01 60,0 0,60 -60,0 0,-60 z"
           style="fill:none;stroke:#000000;stroke-width:5.00001001;stroke-linecap:butt;stroke-linejoin:miter;stroke-miterlimit:10;stroke-dasharray:none;stroke-opacity:1"
           id="path6624"
           inkscape:connector-curvature="0" /><path
           d="m 1815,3112.51 60,0 0,60 -60,0 0,-60 z"
           style="fill:#ff0000;fill-opacity:1;fill-rule:evenodd;stroke:none"
           id="path6626"
           inkscape:connector-curvature="0" /><path
           d="m 1815,3112.51 60,0 0,60 -60,0 0,-60 z"
           style="fill:none;stroke:#000000;stroke-width:5.00001001;stroke-linecap:butt;stroke-linejoin:miter;stroke-miterlimit:10;stroke-dasharray:none;stroke-opacity:1"
           id="path6628"
           inkscape:connector-curvature="0" /><path
           d="m 1927.5,3855.01 60,0 0,60 -60,0 0,-60 z"
           style="fill:#ff0000;fill-opacity:1;fill-rule:evenodd;stroke:none"
           id="path6630"
           inkscape:connector-curvature="0" /><path
           d="m 1927.5,3855.01 60,0 0,60 -60,0 0,-60 z"
           style="fill:none;stroke:#000000;stroke-width:5.00001001;stroke-linecap:butt;stroke-linejoin:miter;stroke-miterlimit:10;stroke-dasharray:none;stroke-opacity:1"
           id="path6632"
           inkscape:connector-curvature="0" /><path
           d="m 2032.5,3712.51 60,0 0,60 -60,0 0,-60 z"
           style="fill:#ff0000;fill-opacity:1;fill-rule:evenodd;stroke:none"
           id="path6634"
           inkscape:connector-curvature="0" /><path
           d="m 2032.5,3712.51 60,0 0,60 -60,0 0,-60 z"
           style="fill:none;stroke:#000000;stroke-width:5.00001001;stroke-linecap:butt;stroke-linejoin:miter;stroke-miterlimit:10;stroke-dasharray:none;stroke-opacity:1"
           id="path6636"
           inkscape:connector-curvature="0" /><path
           d="m 2145,3870.01 60,0 0,60 -60,0 0,-60 z"
           style="fill:#ff0000;fill-opacity:1;fill-rule:evenodd;stroke:none"
           id="path6638"
           inkscape:connector-curvature="0" /><path
           d="m 2145,3870.01 60,0 0,60 -60,0 0,-60 z"
           style="fill:none;stroke:#000000;stroke-width:5.00001001;stroke-linecap:butt;stroke-linejoin:miter;stroke-miterlimit:10;stroke-dasharray:none;stroke-opacity:1"
           id="path6640"
           inkscape:connector-curvature="0" /><path
           d="m 2250.01,3862.51 60,0 0,60 -60,0 0,-60 z"
           style="fill:#ff0000;fill-opacity:1;fill-rule:evenodd;stroke:none"
           id="path6642"
           inkscape:connector-curvature="0" /><path
           d="m 2250.01,3862.51 60,0 0,60 -60,0 0,-60 z"
           style="fill:none;stroke:#000000;stroke-width:5.00001001;stroke-linecap:butt;stroke-linejoin:miter;stroke-miterlimit:10;stroke-dasharray:none;stroke-opacity:1"
           id="path6644"
           inkscape:connector-curvature="0" /><path
           d="m 2362.51,3862.51 60,0 0,60 -60,0 0,-60 z"
           style="fill:#ff0000;fill-opacity:1;fill-rule:evenodd;stroke:none"
           id="path6646"
           inkscape:connector-curvature="0" /><path
           d="m 2362.51,3862.51 60,0 0,60 -60,0 0,-60 z"
           style="fill:none;stroke:#000000;stroke-width:5.00001001;stroke-linecap:butt;stroke-linejoin:miter;stroke-miterlimit:10;stroke-dasharray:none;stroke-opacity:1"
           id="path6648"
           inkscape:connector-curvature="0" /><path
           d="m 2467.51,3825.01 60,0 0,60 -60,0 0,-60 z"
           style="fill:#ff0000;fill-opacity:1;fill-rule:evenodd;stroke:none"
           id="path6650"
           inkscape:connector-curvature="0" /><path
           d="m 2467.51,3825.01 60,0 0,60 -60,0 0,-60 z"
           style="fill:none;stroke:#000000;stroke-width:5.00001001;stroke-linecap:butt;stroke-linejoin:miter;stroke-miterlimit:10;stroke-dasharray:none;stroke-opacity:1"
           id="path6652"
           inkscape:connector-curvature="0" /><path
           d="m 2580.01,3825.01 60,0 0,60 -60,0 0,-60 z"
           style="fill:#ff0000;fill-opacity:1;fill-rule:evenodd;stroke:none"
           id="path6654"
           inkscape:connector-curvature="0" /><path
           d="m 2580.01,3825.01 60,0 0,60 -60,0 0,-60 z"
           style="fill:none;stroke:#000000;stroke-width:5.00001001;stroke-linecap:butt;stroke-linejoin:miter;stroke-miterlimit:10;stroke-dasharray:none;stroke-opacity:1"
           id="path6656"
           inkscape:connector-curvature="0" /><path
           d="m 2685.01,3412.51 60,0 0,60 -60,0 0,-60 z"
           style="fill:#ff0000;fill-opacity:1;fill-rule:evenodd;stroke:none"
           id="path6658"
           inkscape:connector-curvature="0" /><path
           d="m 2685.01,3412.51 60,0 0,60 -60,0 0,-60 z"
           style="fill:none;stroke:#000000;stroke-width:5.00001001;stroke-linecap:butt;stroke-linejoin:miter;stroke-miterlimit:10;stroke-dasharray:none;stroke-opacity:1"
           id="path6660"
           inkscape:connector-curvature="0" /><path
           d="m 2797.51,3862.51 60,0 0,60 -60,0 0,-60 z"
           style="fill:#ff0000;fill-opacity:1;fill-rule:evenodd;stroke:none"
           id="path6662"
           inkscape:connector-curvature="0" /><path
           d="m 2797.51,3862.51 60,0 0,60 -60,0 0,-60 z"
           style="fill:none;stroke:#000000;stroke-width:5.00001001;stroke-linecap:butt;stroke-linejoin:miter;stroke-miterlimit:10;stroke-dasharray:none;stroke-opacity:1"
           id="path6664"
           inkscape:connector-curvature="0" /><path
           d="m 2902.51,3780.01 60,0 0,60 -60,0 0,-60 z"
           style="fill:#ff0000;fill-opacity:1;fill-rule:evenodd;stroke:none"
           id="path6666"
           inkscape:connector-curvature="0" /><path
           d="m 2902.51,3780.01 60,0 0,60 -60,0 0,-60 z"
           style="fill:none;stroke:#000000;stroke-width:5.00001001;stroke-linecap:butt;stroke-linejoin:miter;stroke-miterlimit:10;stroke-dasharray:none;stroke-opacity:1"
           id="path6668"
           inkscape:connector-curvature="0" /><path
           d="m 3015.01,4087.51 60,0 0,60 -60,0 0,-60 z"
           style="fill:#ff0000;fill-opacity:1;fill-rule:evenodd;stroke:none"
           id="path6670"
           inkscape:connector-curvature="0" /><path
           d="m 3015.01,4087.51 60,0 0,60 -60,0 0,-60 z"
           style="fill:none;stroke:#000000;stroke-width:5.00001001;stroke-linecap:butt;stroke-linejoin:miter;stroke-miterlimit:10;stroke-dasharray:none;stroke-opacity:1"
           id="path6672"
           inkscape:connector-curvature="0" /><path
           d="m 3120.01,4432.51 60,0 0,60 -60,0 0,-60 z"
           style="fill:#ff0000;fill-opacity:1;fill-rule:evenodd;stroke:none"
           id="path6674"
           inkscape:connector-curvature="0" /><path
           d="m 3120.01,4432.51 60,0 0,60 -60,0 0,-60 z"
           style="fill:none;stroke:#000000;stroke-width:5.00001001;stroke-linecap:butt;stroke-linejoin:miter;stroke-miterlimit:10;stroke-dasharray:none;stroke-opacity:1"
           id="path6676"
           inkscape:connector-curvature="0" /><path
           d="m 3225.01,4327.51 60,0 0,60 -60,0 0,-60 z"
           style="fill:#ff0000;fill-opacity:1;fill-rule:evenodd;stroke:none"
           id="path6678"
           inkscape:connector-curvature="0" /><path
           d="m 3225.01,4327.51 60,0 0,60 -60,0 0,-60 z"
           style="fill:none;stroke:#000000;stroke-width:5.00001001;stroke-linecap:butt;stroke-linejoin:miter;stroke-miterlimit:10;stroke-dasharray:none;stroke-opacity:1"
           id="path6680"
           inkscape:connector-curvature="0" /><path
           d="m 3337.51,4380.01 60,0 0,60 -60,0 0,-60 z"
           style="fill:#ff0000;fill-opacity:1;fill-rule:evenodd;stroke:none"
           id="path6682"
           inkscape:connector-curvature="0" /><path
           d="m 3337.51,4380.01 60,0 0,60 -60,0 0,-60 z"
           style="fill:none;stroke:#000000;stroke-width:5.00001001;stroke-linecap:butt;stroke-linejoin:miter;stroke-miterlimit:10;stroke-dasharray:none;stroke-opacity:1"
           id="path6684"
           inkscape:connector-curvature="0" /><path
           d="m 3442.51,4545.01 60,0 0,60 -60,0 0,-60 z"
           style="fill:#ff0000;fill-opacity:1;fill-rule:evenodd;stroke:none"
           id="path6686"
           inkscape:connector-curvature="0" /><path
           d="m 3442.51,4545.01 60,0 0,60 -60,0 0,-60 z"
           style="fill:none;stroke:#000000;stroke-width:5.00001001;stroke-linecap:butt;stroke-linejoin:miter;stroke-miterlimit:10;stroke-dasharray:none;stroke-opacity:1"
           id="path6688"
           inkscape:connector-curvature="0" /><path
           d="m 3555.01,4500.01 60,0 0,60 -60,0 0,-60 z"
           style="fill:#ff0000;fill-opacity:1;fill-rule:evenodd;stroke:none"
           id="path6690"
           inkscape:connector-curvature="0" /><path
           d="m 3555.01,4500.01 60,0 0,60 -60,0 0,-60 z"
           style="fill:none;stroke:#000000;stroke-width:5.00001001;stroke-linecap:butt;stroke-linejoin:miter;stroke-miterlimit:10;stroke-dasharray:none;stroke-opacity:1"
           id="path6692"
           inkscape:connector-curvature="0" /><path
           d="m 3660.01,4732.51 60,0 0,60 -60,0 0,-60 z"
           style="fill:#ff0000;fill-opacity:1;fill-rule:evenodd;stroke:none"
           id="path6694"
           inkscape:connector-curvature="0" /><path
           d="m 3660.01,4732.51 60,0 0,60 -60,0 0,-60 z"
           style="fill:none;stroke:#000000;stroke-width:5.00001001;stroke-linecap:butt;stroke-linejoin:miter;stroke-miterlimit:10;stroke-dasharray:none;stroke-opacity:1"
           id="path6696"
           inkscape:connector-curvature="0" /><path
           d="m 3772.51,4807.51 60,0 0,60 -60,0 0,-60 z"
           style="fill:#ff0000;fill-opacity:1;fill-rule:evenodd;stroke:none"
           id="path6698"
           inkscape:connector-curvature="0" /><path
           d="m 3772.51,4807.51 60,0 0,60 -60,0 0,-60 z"
           style="fill:none;stroke:#000000;stroke-width:5.00001001;stroke-linecap:butt;stroke-linejoin:miter;stroke-miterlimit:10;stroke-dasharray:none;stroke-opacity:1"
           id="path6700"
           inkscape:connector-curvature="0" /><path
           d="m 3877.51,4717.51 60,0 0,60 -60,0 0,-60 z"
           style="fill:#ff0000;fill-opacity:1;fill-rule:evenodd;stroke:none"
           id="path6702"
           inkscape:connector-curvature="0" /><path
           d="m 3877.51,4717.51 60,0 0,60 -60,0 0,-60 z"
           style="fill:none;stroke:#000000;stroke-width:5.00001001;stroke-linecap:butt;stroke-linejoin:miter;stroke-miterlimit:10;stroke-dasharray:none;stroke-opacity:1"
           id="path6704"
           inkscape:connector-curvature="0" /><path
           d="m 3990.01,4860.01 60,0 0,60 -60,0 0,-60 z"
           style="fill:#ff0000;fill-opacity:1;fill-rule:evenodd;stroke:none"
           id="path6706"
           inkscape:connector-curvature="0" /><path
           d="m 3990.01,4860.01 60,0 0,60 -60,0 0,-60 z"
           style="fill:none;stroke:#000000;stroke-width:5.00001001;stroke-linecap:butt;stroke-linejoin:miter;stroke-miterlimit:10;stroke-dasharray:none;stroke-opacity:1"
           id="path6708"
           inkscape:connector-curvature="0" /><path
           d="m 4095.01,5040.01 60,0 0,60 -60,0 0,-60 z"
           style="fill:#ff0000;fill-opacity:1;fill-rule:evenodd;stroke:none"
           id="path6710"
           inkscape:connector-curvature="0" /><path
           d="m 4095.01,5040.01 60,0 0,60 -60,0 0,-60 z"
           style="fill:none;stroke:#000000;stroke-width:5.00001001;stroke-linecap:butt;stroke-linejoin:miter;stroke-miterlimit:10;stroke-dasharray:none;stroke-opacity:1"
           id="path6712"
           inkscape:connector-curvature="0" /><path
           d="m 4207.51,4927.51 60,0 0,60 -60,0 0,-60 z"
           style="fill:#ff0000;fill-opacity:1;fill-rule:evenodd;stroke:none"
           id="path6714"
           inkscape:connector-curvature="0" /><path
           d="m 4207.51,4927.51 60,0 0,60 -60,0 0,-60 z"
           style="fill:none;stroke:#000000;stroke-width:5.00001001;stroke-linecap:butt;stroke-linejoin:miter;stroke-miterlimit:10;stroke-dasharray:none;stroke-opacity:1"
           id="path6716"
           inkscape:connector-curvature="0" /><path
           d="m 4312.51,5302.51 60,0 0,60 -60,0 0,-60 z"
           style="fill:#ff0000;fill-opacity:1;fill-rule:evenodd;stroke:none"
           id="path6718"
           inkscape:connector-curvature="0" /><path
           d="m 4312.51,5302.51 60,0 0,60 -60,0 0,-60 z"
           style="fill:none;stroke:#000000;stroke-width:5.00001001;stroke-linecap:butt;stroke-linejoin:miter;stroke-miterlimit:10;stroke-dasharray:none;stroke-opacity:1"
           id="path6720"
           inkscape:connector-curvature="0" /><path
           d="m 4425.01,5235.01 60,0 0,60 -60,0 0,-60 z"
           style="fill:#ff0000;fill-opacity:1;fill-rule:evenodd;stroke:none"
           id="path6722"
           inkscape:connector-curvature="0" /><path
           d="m 4425.01,5235.01 60,0 0,60 -60,0 0,-60 z"
           style="fill:none;stroke:#000000;stroke-width:5.00001001;stroke-linecap:butt;stroke-linejoin:miter;stroke-miterlimit:10;stroke-dasharray:none;stroke-opacity:1"
           id="path6724"
           inkscape:connector-curvature="0" /><path
           d="m 4530.01,5317.51 60,0 0,60 -60,0 0,-60 z"
           style="fill:#ff0000;fill-opacity:1;fill-rule:evenodd;stroke:none"
           id="path6726"
           inkscape:connector-curvature="0" /><path
           d="m 4530.01,5317.51 60,0 0,60 -60,0 0,-60 z"
           style="fill:none;stroke:#000000;stroke-width:5.00001001;stroke-linecap:butt;stroke-linejoin:miter;stroke-miterlimit:10;stroke-dasharray:none;stroke-opacity:1"
           id="path6728"
           inkscape:connector-curvature="0" /><path
           d="m 4642.51,5250.01 60,0 0,60 -60,0 0,-60 z"
           style="fill:#ff0000;fill-opacity:1;fill-rule:evenodd;stroke:none"
           id="path6730"
           inkscape:connector-curvature="0" /><path
           d="m 4642.51,5250.01 60,0 0,60 -60,0 0,-60 z"
           style="fill:none;stroke:#000000;stroke-width:5.00001001;stroke-linecap:butt;stroke-linejoin:miter;stroke-miterlimit:10;stroke-dasharray:none;stroke-opacity:1"
           id="path6732"
           inkscape:connector-curvature="0" /></g></g></g></svg>