<?xml version="1.0" encoding="UTF-8" standalone="no"?>
<!-- Created with Inkscape (http://www.inkscape.org/) -->

<svg
   xmlns:dc="http://purl.org/dc/elements/1.1/"
   xmlns:cc="http://creativecommons.org/ns#"
   xmlns:rdf="http://www.w3.org/1999/02/22-rdf-syntax-ns#"
   xmlns:svg="http://www.w3.org/2000/svg"
   xmlns="http://www.w3.org/2000/svg"
   xmlns:sodipodi="http://sodipodi.sourceforge.net/DTD/sodipodi-0.dtd"
   xmlns:inkscape="http://www.inkscape.org/namespaces/inkscape"
   id="svg3336"
   version="1.1"
   inkscape:version="0.91 r13725"
   xml:space="preserve"
   width="426"
   height="687.87616"
   viewBox="0 0 426 687.87616"
   sodipodi:docname="pic1-1.svg"><metadata
     id="metadata3342"><rdf:RDF><cc:Work
         rdf:about=""><dc:format>image/svg+xml</dc:format><dc:type
           rdf:resource="http://purl.org/dc/dcmitype/StillImage" /><dc:title></dc:title></cc:Work></rdf:RDF></metadata><defs
     id="defs3340" /><sodipodi:namedview
     pagecolor="#ffffff"
     bordercolor="#666666"
     borderopacity="1"
     objecttolerance="10"
     gridtolerance="10"
     guidetolerance="10"
     inkscape:pageopacity="0"
     inkscape:pageshadow="2"
     inkscape:window-width="1366"
     inkscape:window-height="705"
     id="namedview3338"
     showgrid="false"
     fit-margin-top="0"
     fit-margin-left="0"
     fit-margin-right="0"
     fit-margin-bottom="0"
     inkscape:zoom="0.49786223"
     inkscape:cx="364.44222"
     inkscape:cy="448.08327"
     inkscape:window-x="-8"
     inkscape:window-y="-8"
     inkscape:window-maximized="1"
     inkscape:current-layer="g3344" /><g
     id="g3344"
     inkscape:groupmode="layer"
     inkscape:label="pic1-1"
     transform="matrix(1.25,0,0,-1.25,-7.5702879,605.35595)"><path
       d="m 36.53801,-66.016148 309.22602,0 0,149.581032 -309.22602,0 0,-149.581032 z"
       style="fill:#ffffff;fill-opacity:1;fill-rule:nonzero;stroke:none"
       id="path3346"
       inkscape:connector-curvature="0" /><path
       d="m 6.3608689,-53.126809 340.3069311,0 0,537.223149 -340.3069311,0 0,-537.223149 z"
       style="fill:none;stroke:#000000;stroke-width:0.37684363;stroke-linecap:round;stroke-linejoin:round;stroke-miterlimit:10;stroke-dasharray:2.63790563, 1.88421832, 0.00036742, 1.88421832;stroke-dashoffset:0;stroke-opacity:1"
       id="path3348"
       inkscape:connector-curvature="0" /><path
       d="m 6.1510054,100.1436 162.9384646,0 0,88.07221 -162.9384646,0 0,-88.07221 z"
       style="fill:#ffffff;fill-opacity:1;fill-rule:nonzero;stroke:none"
       id="path3350"
       inkscape:connector-curvature="0" /><path
       d="m 6.1510054,100.1436 162.9384646,0 0,88.07221 -162.9384646,0 0,-88.07221 z"
       style="fill:none;stroke:#000000;stroke-width:0.18955022;stroke-linecap:round;stroke-linejoin:round;stroke-miterlimit:10;stroke-dasharray:1.32685148, 0.94775105, 0.00018482, 0.94775105;stroke-dashoffset:0;stroke-opacity:1"
       id="path3352"
       inkscape:connector-curvature="0" /><path
       d="m 182.862,100.1436 161.18958,0 0,88.07221 -161.18958,0 0,-88.07221 z"
       style="fill:#ffffff;fill-opacity:1;fill-rule:nonzero;stroke:none"
       id="path3354"
       inkscape:connector-curvature="0" /><path
       d="m 182.862,100.1436 161.18958,0 0,88.07221 -161.18958,0 0,-88.07221 z"
       style="fill:none;stroke:#000000;stroke-width:0.18955022;stroke-linecap:round;stroke-linejoin:round;stroke-miterlimit:10;stroke-dasharray:1.32685148, 0.94775105, 0.00018482, 0.94775105;stroke-dashoffset:0;stroke-opacity:1"
       id="path3356"
       inkscape:connector-curvature="0" /><path
       d="m 81.280503,202.02141 218.611537,0 0,227.11415 -218.611537,0 0,-227.11415 z"
       style="fill:#ffffff;fill-opacity:1;fill-rule:nonzero;stroke:none"
       id="path3358"
       inkscape:connector-curvature="0" /><path
       d="m 81.280503,202.02141 218.611537,0 0,227.11415 -218.611537,0 0,-227.11415 z"
       style="fill:none;stroke:#000000;stroke-width:0.18955022;stroke-linecap:round;stroke-linejoin:round;stroke-miterlimit:10;stroke-dasharray:1.32685148, 0.94775105, 0.00018482, 0.94775105;stroke-dashoffset:0;stroke-opacity:1"
       id="path3360"
       inkscape:connector-curvature="0" /><g
       id="g3362"
       transform="matrix(0.6072543,0,0,1.0272011,119.35535,438.8118)"><path
         d="m 0,0 197.82,0 c 6.78,0 12.24,5.46 12.24,12.24 0,6.72 -5.46,12.18 -12.24,12.18 L 0,24.42 c -6.78,0 -12.24,-5.46 -12.24,-12.18 C -12.24,5.46 -6.78,0 0,0"
         style="fill:#ffffff;fill-opacity:1;fill-rule:evenodd;stroke:none"
         id="path3364"
         inkscape:connector-curvature="0" /></g><g
       id="g3366"
       transform="matrix(0.6072543,0,0,1.0272011,119.35535,438.8118)"><path
         d="m 0,0 197.82,0 c 6.78,0 12.24,5.46 12.24,12.24 0,6.72 -5.46,12.18 -12.24,12.18 L 0,24.42 c -6.78,0 -12.24,-5.46 -12.24,-12.18 C -12.24,5.46 -6.78,0 0,0 Z"
         style="fill:none;stroke:#000000;stroke-width:0.23999999;stroke-linecap:round;stroke-linejoin:round;stroke-miterlimit:10;stroke-dasharray:none;stroke-opacity:1"
         id="path3368"
         inkscape:connector-curvature="0" /></g><text
       transform="scale(0.76888587,-1.3005831)"
       style="font-variant:normal;font-weight:normal;font-stretch:normal;font-size:7.91364193px;font-family:SimSun;-inkscape-font-specification:SimSun;writing-mode:lr-tb;fill:#000000;fill-opacity:1;fill-rule:nonzero;stroke:none"
       id="text3370"
       x="166.22536"
       y="-344.40988"><tspan
         x="166.22536 174.13899 182.00514 189.91879 197.83243 205.69859 213.61223 221.52588 229.39203 237.30568 245.21931 253.08551 260.99911 268.91278 276.77893 284.6926 292.6062"
         y="-344.40988"
         sodipodi:role="line"
         id="tspan3372">调研纯电动物流车各工况下的功率特性</tspan></text>
<path
       d="m 119.20961,313.76034 120.49139,0 0,25.08424 -120.49139,0 0,-25.08424 z"
       style="fill:#ffffff;fill-opacity:1;fill-rule:nonzero;stroke:none"
       id="path3374"
       inkscape:connector-curvature="0" /><path
       d="m 119.20961,313.76034 120.49139,0 0,25.08424 -120.49139,0 0,-25.08424 z"
       style="fill:none;stroke:#000000;stroke-width:0.18955022;stroke-linecap:round;stroke-linejoin:round;stroke-miterlimit:10;stroke-dasharray:none;stroke-opacity:1"
       id="path3376"
       inkscape:connector-curvature="0" /><text
       transform="scale(0.76888587,-1.3005831)"
       style="font-variant:normal;font-weight:normal;font-stretch:normal;font-size:7.91364193px;font-family:SimSun;-inkscape-font-specification:SimSun;writing-mode:lr-tb;fill:#000000;fill-opacity:1;fill-rule:nonzero;stroke:none"
       id="text3378"
       x="193.94681"
       y="-248.25955"><tspan
         x="193.94681 201.86044 209.72661 217.64023 225.55388 233.42003 241.33368 249.24733 257.11346 265.02713"
         y="-248.25955"
         sodipodi:role="line"
         id="tspan3380">研究电池等效电路模型</tspan></text>
<path
       d="m 115.34747,398.19627 127.74201,0 0,25.08425 -127.74201,0 0,-25.08425 z"
       style="fill:#ffffff;fill-opacity:1;fill-rule:nonzero;stroke:none"
       id="path3382"
       inkscape:connector-curvature="0" /><path
       d="m 115.34747,398.19627 127.74201,0 0,25.08425 -127.74201,0 0,-25.08425 z"
       style="fill:none;stroke:#000000;stroke-width:0.18955022;stroke-linecap:round;stroke-linejoin:round;stroke-miterlimit:10;stroke-dasharray:none;stroke-opacity:1"
       id="path3384"
       inkscape:connector-curvature="0" /><text
       transform="scale(0.76888587,-1.3005831)"
       style="font-variant:normal;font-weight:normal;font-stretch:normal;font-size:7.91364193px;font-family:SimSun;-inkscape-font-specification:SimSun;writing-mode:lr-tb;fill:#000000;fill-opacity:1;fill-rule:nonzero;stroke:none"
       id="text3386"
       x="154.14163"
       y="-313.18112"><tspan
         x="154.14163 162.05528 169.92143 177.83508 185.74873 193.61488 201.52853 209.44217 217.30833 225.22197 233.13562 241.00177 248.91544 256.82907 264.69522 272.60889 280.52252 288.38867 296.30231 304.21594"
         y="-313.18112"
         sodipodi:role="line"
         id="tspan3388">分析纯电动物流车电池组构成特征和动态特性</tspan></text>
<path
       d="m 223.56018,53.549753 120.4914,0 0,25.084252 -120.4914,0 0,-25.084252 z"
       style="fill:#ffffff;fill-opacity:1;fill-rule:nonzero;stroke:none"
       id="path3390"
       inkscape:connector-curvature="0" /><path
       d="m 223.56018,53.549753 120.4914,0 0,25.084252 -120.4914,0 0,-25.084252 z"
       style="fill:none;stroke:#000000;stroke-width:0.18955022;stroke-linecap:round;stroke-linejoin:round;stroke-miterlimit:10;stroke-dasharray:none;stroke-opacity:1"
       id="path3392"
       inkscape:connector-curvature="0" /><text
       transform="scale(0.76888587,-1.3005831)"
       style="font-variant:normal;font-weight:normal;font-stretch:normal;font-size:7.91364193px;font-family:SimSun;-inkscape-font-specification:SimSun;writing-mode:lr-tb;fill:#000000;fill-opacity:1;fill-rule:nonzero;stroke:none"
       id="text3394"
       x="295.4025"
       y="-53.44738"><tspan
         x="295.4025 303.31616"
         y="-53.44738"
         sodipodi:role="line"
         id="tspan3396">基于</tspan></text>
<text
       transform="scale(0.76888587,-1.3005831)"
       style="font-variant:normal;font-weight:normal;font-stretch:normal;font-size:7.91364193px;font-family:Calibri;-inkscape-font-specification:Calibri;writing-mode:lr-tb;fill:#000000;fill-opacity:1;fill-rule:nonzero;stroke:none"
       id="text3398"
       x="311.18231"
       y="-53.44738"><tspan
         x="311.18231 315.73428 320.60748 325.10083 327.10141 330.69894 335.91089"
         y="-53.44738"
         sodipodi:role="line"
         id="tspan3400">ADVISOR</tspan></text>
<text
       transform="scale(0.76888587,-1.3005831)"
       style="font-variant:normal;font-weight:normal;font-stretch:normal;font-size:7.91364193px;font-family:SimSun;-inkscape-font-specification:SimSun;writing-mode:lr-tb;fill:#000000;fill-opacity:1;fill-rule:nonzero;stroke:none"
       id="text3402"
       x="340.2309"
       y="-53.44738"><tspan
         x="340.2309 348.14459 356.01071 363.92438 371.83801 379.70419 387.61783 395.53149 403.39761 411.31125 419.22488 427.09109 435.0047"
         y="-53.44738"
         sodipodi:role="line"
         id="tspan3404">搭建纯电动物流汽车的整车仿</tspan><tspan
         x="325.68329 333.59692 341.4631 349.37674 357.29041 365.15649 373.07016 380.9838 388.84998 396.76361 404.67728"
         y="-42.926991"
         sodipodi:role="line"
         id="tspan3406">真平台提供实际工况数据</tspan></text>
<g
       id="g3408"
       transform="matrix(0.6072543,0,0,1.0272011,126.60596,-58.928768)"><path
         d="m 0,0 173.94,0 c 6.78,0 12.24,5.46 12.24,12.24 0,6.72 -5.46,12.18 -12.24,12.18 L 0,24.42 c -6.78,0 -12.24,-5.46 -12.24,-12.18 C -12.24,5.46 -6.78,0 0,0"
         style="fill:#ffffff;fill-opacity:1;fill-rule:evenodd;stroke:none"
         id="path3410"
         inkscape:connector-curvature="0" /></g><g
       id="g3412"
       transform="matrix(0.6072543,0,0,1.0272011,126.60596,-58.928768)"><path
         d="m 0,0 173.94,0 c 6.78,0 12.24,5.46 12.24,12.24 0,6.72 -5.46,12.18 -12.24,12.18 L 0,24.42 c -6.78,0 -12.24,-5.46 -12.24,-12.18 C -12.24,5.46 -6.78,0 0,0 Z"
         style="fill:none;stroke:#000000;stroke-width:0.23999999;stroke-linecap:round;stroke-linejoin:round;stroke-miterlimit:10;stroke-dasharray:none;stroke-opacity:1"
         id="path3414"
         inkscape:connector-curvature="0" /></g><text
       transform="scale(0.76888587,-1.3005831)"
       style="font-variant:normal;font-weight:normal;font-stretch:normal;font-size:7.91364193px;font-family:SimSun;-inkscape-font-specification:SimSun;writing-mode:lr-tb;fill:#000000;fill-opacity:1;fill-rule:nonzero;stroke:none"
       id="text3416"
       x="193.85202"
       y="38.295834"><tspan
         x="193.85202 201.76566 209.63182 217.54546 225.45911 233.37276 241.28638 249.15254 257.06619 264.97983"
         y="38.295834"
         sodipodi:role="line"
         id="tspan3418">得出结论，并总结分析</tspan></text>
<path
       d="m 189.894,119.06465 120.4914,0 0,25.14588 -120.4914,0 0,-25.14588 z"
       style="fill:#ffffff;fill-opacity:1;fill-rule:nonzero;stroke:none"
       id="path3420"
       inkscape:connector-curvature="0" /><path
       d="m 189.894,119.06465 120.4914,0 0,25.14588 -120.4914,0 0,-25.14588 z"
       style="fill:none;stroke:#000000;stroke-width:0.18955022;stroke-linecap:round;stroke-linejoin:round;stroke-miterlimit:10;stroke-dasharray:none;stroke-opacity:1"
       id="path3422"
       inkscape:connector-curvature="0" /><text
       transform="scale(0.76888587,-1.3005831)"
       style="font-variant:normal;font-weight:normal;font-stretch:normal;font-size:7.91364193px;font-family:SimSun;-inkscape-font-specification:SimSun;writing-mode:lr-tb;fill:#000000;fill-opacity:1;fill-rule:nonzero;stroke:none"
       id="text3424"
       x="249.24751"
       y="-98.560783"><tspan
         x="249.24751 257.16116 265.02731 272.94095 280.85458 288.72076 296.6344 304.54807 312.41418"
         y="-98.560783"
         sodipodi:role="line"
         id="tspan3426">基于分数阶微积分的</tspan></text>
<text
       transform="scale(0.76888587,-1.3005831)"
       style="font-variant:normal;font-weight:normal;font-stretch:normal;font-size:7.91364193px;font-family:Calibri;-inkscape-font-specification:Calibri;writing-mode:lr-tb;fill:#000000;fill-opacity:1;fill-rule:nonzero;stroke:none"
       id="text3428"
       x="320.32785"
       y="-98.560783"><tspan
         x="320.32785 325.41077 329.52823"
         y="-98.560783"
         sodipodi:role="line"
         id="tspan3430">UKF</tspan></text>
<text
       transform="scale(0.76888587,-1.3005831)"
       style="font-variant:normal;font-weight:normal;font-stretch:normal;font-size:7.91364193px;font-family:SimSun;-inkscape-font-specification:SimSun;writing-mode:lr-tb;fill:#000000;fill-opacity:1;fill-rule:nonzero;stroke:none"
       id="text3432"
       x="333.12262"
       y="-98.560783"><tspan
         x="333.12262 341.03625 348.90247 356.81607 364.72974"
         y="-98.560783"
         sodipodi:role="line"
         id="tspan3434">进行锂电池</tspan></text>
<text
       transform="scale(0.76888587,-1.3005831)"
       style="font-variant:normal;font-weight:normal;font-stretch:normal;font-size:7.91364193px;font-family:Calibri;-inkscape-font-specification:Calibri;writing-mode:lr-tb;fill:#000000;fill-opacity:1;fill-rule:nonzero;stroke:none"
       id="text3436"
       x="372.59586"
       y="-98.560783"><tspan
         x="372.59586 376.2211 381.45285"
         y="-98.560783"
         sodipodi:role="line"
         id="tspan3438">SOC</tspan></text>
<text
       transform="scale(0.76888587,-1.3005831)"
       style="font-variant:normal;font-weight:normal;font-stretch:normal;font-size:7.91364193px;font-family:SimSun;-inkscape-font-specification:SimSun;writing-mode:lr-tb;fill:#000000;fill-opacity:1;fill-rule:nonzero;stroke:none"
       id="text3440"
       x="385.67471"
       y="-98.560783"><tspan
         x="385.67471 393.58838"
         y="-98.560783"
         sodipodi:role="line"
         id="tspan3442">估计</tspan></text>
<path
       d="m 119.17317,2.2102422 120.49139,0 0,25.0842508 -120.49139,0 0,-25.0842508 z"
       style="fill:#ffffff;fill-opacity:1;fill-rule:nonzero;stroke:none"
       id="path3444"
       inkscape:connector-curvature="0" /><path
       d="m 119.17317,2.2102422 120.49139,0 0,25.0842508 -120.49139,0 0,-25.0842508 z"
       style="fill:none;stroke:#000000;stroke-width:0.18955022;stroke-linecap:round;stroke-linejoin:round;stroke-miterlimit:10;stroke-dasharray:none;stroke-opacity:1"
       id="path3446"
       inkscape:connector-curvature="0" /><text
       transform="scale(0.76888587,-1.3005831)"
       style="font-variant:normal;font-weight:normal;font-stretch:normal;font-size:7.91364193px;font-family:SimSun;-inkscape-font-specification:SimSun;writing-mode:lr-tb;fill:#000000;fill-opacity:1;fill-rule:nonzero;stroke:none"
       id="text3448"
       x="170.15848"
       y="-8.713088"><tspan
         x="170.15848 178.07211 185.93826 193.85191 201.76555 209.63171 217.54535 225.459 233.32515 241.2388 249.15245 257.01862 264.93225 272.84589 280.71207 288.6257"
         y="-8.713088"
         sodipodi:role="line"
         id="tspan3450">对比实测数据验证及评估模型和方法</tspan></text>
<g
       id="g3452"
       transform="matrix(0.6072543,0,0,1.0272011,179.40065,2.2102422)"><path
         d="M 0,0 0,-30.9"
         style="fill:none;stroke:#000000;stroke-width:0.23999999;stroke-linecap:round;stroke-linejoin:round;stroke-miterlimit:10;stroke-dasharray:none;stroke-opacity:1"
         id="path3454"
         inkscape:connector-curvature="0" /></g><g
       id="g3456"
       transform="matrix(0.6072543,0,0,1.0272011,179.40065,-33.844517)"><path
         d="m 0,0 -2.76,5.52 c 1.74,-0.84 3.78,-0.84 5.52,0 L 0,0"
         style="fill:#000000;fill-opacity:1;fill-rule:evenodd;stroke:none"
         id="path3458"
         inkscape:connector-curvature="0" /></g><path
       d="m 119.17317,270.0632 120.49139,0 0,25.14588 -120.49139,0 0,-25.14588 z"
       style="fill:#ffffff;fill-opacity:1;fill-rule:nonzero;stroke:none"
       id="path3460"
       inkscape:connector-curvature="0" /><path
       d="m 119.17317,270.0632 120.49139,0 0,25.14588 -120.49139,0 0,-25.14588 z"
       style="fill:none;stroke:#000000;stroke-width:0.18955022;stroke-linecap:round;stroke-linejoin:round;stroke-miterlimit:10;stroke-dasharray:none;stroke-opacity:1"
       id="path3462"
       inkscape:connector-curvature="0" /><text
       transform="scale(0.76888587,-1.3005831)"
       style="font-variant:normal;font-weight:normal;font-stretch:normal;font-size:7.91364193px;font-family:SimSun;-inkscape-font-specification:SimSun;writing-mode:lr-tb;fill:#000000;fill-opacity:1;fill-rule:nonzero;stroke:none"
       id="text3464"
       x="162.29222"
       y="-214.66144"><tspan
         x="162.29222 170.20586 178.07202 185.98566 193.89931 201.76546 209.67911 217.59276 225.45891 233.37256 241.28619 249.15236 257.06598 264.97964 272.84579 280.75946 288.67307 296.53925"
         y="-214.66144"
         sodipodi:role="line"
         id="tspan3466">基于最小二乘法对电池模型进行参数辨识</tspan></text>
<path
       d="m 189.894,155.79735 120.4914,0 0,25.14588 -120.4914,0 0,-25.14588 z"
       style="fill:#ffffff;fill-opacity:1;fill-rule:nonzero;stroke:none"
       id="path3468"
       inkscape:connector-curvature="0" /><path
       d="m 189.894,155.79735 120.4914,0 0,25.14588 -120.4914,0 0,-25.14588 z"
       style="fill:none;stroke:#000000;stroke-width:0.18955022;stroke-linecap:round;stroke-linejoin:round;stroke-miterlimit:10;stroke-dasharray:none;stroke-opacity:1"
       id="path3470"
       inkscape:connector-curvature="0" /><text
       transform="scale(0.76888587,-1.3005831)"
       style="font-variant:normal;font-weight:normal;font-stretch:normal;font-size:7.91364193px;font-family:SimSun;-inkscape-font-specification:SimSun;writing-mode:lr-tb;fill:#000000;fill-opacity:1;fill-rule:nonzero;stroke:none"
       id="text3472"
       x="250.33742"
       y="-126.80405"><tspan
         x="250.33742 258.25107 266.11719 274.03085 281.94449 289.81067 297.7243 305.63794 313.50409 321.41776 329.33139 337.19754 345.11118 353.02481 360.89099 368.80466 376.71826 384.58447 392.49811"
         y="-126.80405"
         sodipodi:role="line"
         id="tspan3474">引入分数阶微积分对等效电路模型进行求解</tspan></text>
<g
       id="g3476"
       transform="matrix(0.6072543,0,0,1.0272011,250.12148,155.79735)"><path
         d="M 0,0 0,-7.08"
         style="fill:none;stroke:#000000;stroke-width:0.23999999;stroke-linecap:round;stroke-linejoin:round;stroke-miterlimit:10;stroke-dasharray:none;stroke-opacity:1"
         id="path3478"
         inkscape:connector-curvature="0" /></g><g
       id="g3480"
       transform="matrix(0.6072543,0,0,1.0272011,250.12148,144.21053)"><path
         d="m 0,0 -2.76,5.52 c 1.74,-0.84 3.78,-0.84 5.52,0 L 0,0"
         style="fill:#000000;fill-opacity:1;fill-rule:evenodd;stroke:none"
         id="path3482"
         inkscape:connector-curvature="0" /></g><path
       d="m 119.20961,356.3481 120.49139,0 0,25.08425 -120.49139,0 0,-25.08425 z"
       style="fill:#ffffff;fill-opacity:1;fill-rule:nonzero;stroke:none"
       id="path3484"
       inkscape:connector-curvature="0" /><path
       d="m 119.20961,356.3481 120.49139,0 0,25.08425 -120.49139,0 0,-25.08425 z"
       style="fill:none;stroke:#000000;stroke-width:0.18955022;stroke-linecap:round;stroke-linejoin:round;stroke-miterlimit:10;stroke-dasharray:none;stroke-opacity:1"
       id="path3486"
       inkscape:connector-curvature="0" /><text
       transform="scale(0.76888587,-1.3005831)"
       style="font-variant:normal;font-weight:normal;font-stretch:normal;font-size:7.91364193px;font-family:SimSun;-inkscape-font-specification:SimSun;writing-mode:lr-tb;fill:#000000;fill-opacity:1;fill-rule:nonzero;stroke:none"
       id="text3488"
       x="193.94681"
       y="-281.00467"><tspan
         x="193.94681 201.86044 209.72661 217.64023 225.55388 233.42003 241.33368 249.24733 257.11346 265.02713"
         y="-281.00467"
         sodipodi:role="line"
         id="tspan3490">研究电池的电化学模型</tspan></text>
<path
       d="m 119.17317,226.4277 120.49139,0 0,25.08425 -120.49139,0 0,-25.08425 z"
       style="fill:#ffffff;fill-opacity:1;fill-rule:nonzero;stroke:none"
       id="path3492"
       inkscape:connector-curvature="0" /><path
       d="m 119.17317,226.4277 120.49139,0 0,25.08425 -120.49139,0 0,-25.08425 z"
       style="fill:none;stroke:#000000;stroke-width:0.18955022;stroke-linecap:round;stroke-linejoin:round;stroke-miterlimit:10;stroke-dasharray:none;stroke-opacity:1"
       id="path3494"
       inkscape:connector-curvature="0" /><text
       transform="scale(0.76888587,-1.3005831)"
       style="font-variant:normal;font-weight:normal;font-stretch:normal;font-size:7.91364193px;font-family:SimSun;-inkscape-font-specification:SimSun;writing-mode:lr-tb;fill:#000000;fill-opacity:1;fill-rule:nonzero;stroke:none"
       id="text3496"
       x="178.07211"
       y="-181.06332"><tspan
         x="178.07211 185.98575 193.85191 201.76555 209.6792 217.54535 225.459 233.37265 241.2388 249.15245 257.0661 264.93225 272.84589 280.75955"
         y="-181.06332"
         sodipodi:role="line"
         id="tspan3498">确定电池模型参数辨识置信区间</tspan></text>
<path
       d="m 48.598079,118.94137 120.491391,0 0,25.14588 -120.491391,0 0,-25.14588 z"
       style="fill:#ffffff;fill-opacity:1;fill-rule:nonzero;stroke:none"
       id="path3500"
       inkscape:connector-curvature="0" /><path
       d="m 48.598079,118.94137 120.491391,0 0,25.14588 -120.491391,0 0,-25.14588 z"
       style="fill:none;stroke:#000000;stroke-width:0.18955022;stroke-linecap:round;stroke-linejoin:round;stroke-miterlimit:10;stroke-dasharray:none;stroke-opacity:1"
       id="path3502"
       inkscape:connector-curvature="0" /><text
       transform="scale(0.76888587,-1.3005831)"
       style="font-variant:normal;font-weight:normal;font-stretch:normal;font-size:7.91364193px;font-family:SimSun;-inkscape-font-specification:SimSun;writing-mode:lr-tb;fill:#000000;fill-opacity:1;fill-rule:nonzero;stroke:none"
       id="text3504"
       x="93.107094"
       y="-98.466003"><tspan
         x="93.107094 101.02073"
         y="-98.466003"
         sodipodi:role="line"
         id="tspan3506">基于</tspan></text>
<text
       transform="scale(0.76888587,-1.3005831)"
       style="font-variant:normal;font-weight:normal;font-stretch:normal;font-size:7.91364193px;font-family:Calibri;-inkscape-font-specification:Calibri;writing-mode:lr-tb;fill:#000000;fill-opacity:1;fill-rule:nonzero;stroke:none"
       id="text3508"
       x="108.88689"
       y="-98.466003"><tspan
         x="108.88689 113.96983 118.08729"
         y="-98.466003"
         sodipodi:role="line"
         id="tspan3510">UKF</tspan></text>
<text
       transform="scale(0.76888587,-1.3005831)"
       style="font-variant:normal;font-weight:normal;font-stretch:normal;font-size:7.91364193px;font-family:SimSun;-inkscape-font-specification:SimSun;writing-mode:lr-tb;fill:#000000;fill-opacity:1;fill-rule:nonzero;stroke:none"
       id="text3512"
       x="121.68166"
       y="-98.466003"><tspan
         x="121.68166 129.59531 137.46146 145.37511 153.28874"
         y="-98.466003"
         sodipodi:role="line"
         id="tspan3514">进行锂电池</tspan></text>
<text
       transform="scale(0.76888587,-1.3005831)"
       style="font-variant:normal;font-weight:normal;font-stretch:normal;font-size:7.91364193px;font-family:Calibri;-inkscape-font-specification:Calibri;writing-mode:lr-tb;fill:#000000;fill-opacity:1;fill-rule:nonzero;stroke:none"
       id="text3516"
       x="161.20239"
       y="-98.466003"><tspan
         x="161.20239 164.82764 170.05934"
         y="-98.466003"
         sodipodi:role="line"
         id="tspan3518">SOC</tspan></text>
<text
       transform="scale(0.76888587,-1.3005831)"
       style="font-variant:normal;font-weight:normal;font-stretch:normal;font-size:7.91364193px;font-family:SimSun;-inkscape-font-specification:SimSun;writing-mode:lr-tb;fill:#000000;fill-opacity:1;fill-rule:nonzero;stroke:none"
       id="text3520"
       x="174.2338"
       y="-98.466003"><tspan
         x="174.2338 182.14743"
         y="-98.466003"
         sodipodi:role="line"
         id="tspan3522">估计</tspan></text>
<g
       id="g3524"
       transform="matrix(0.6072543,0,0,1.0272011,179.40065,438.8118)"><path
         d="M 0,0 -0.18,-10.92"
         style="fill:none;stroke:#000000;stroke-width:0.23999999;stroke-linecap:round;stroke-linejoin:round;stroke-miterlimit:10;stroke-dasharray:none;stroke-opacity:1"
         id="path3526"
         inkscape:connector-curvature="0" /></g><g
       id="g3528"
       transform="matrix(0.6072543,0,0,1.0272011,179.21847,423.28052)"><path
         d="M 0,0 -2.64,5.58 C -0.9,4.68 1.14,4.68 2.88,5.52 L 0,0"
         style="fill:#000000;fill-opacity:1;fill-rule:evenodd;stroke:none"
         id="path3530"
         inkscape:connector-curvature="0" /></g><g
       id="g3532"
       transform="matrix(0.6072543,0,0,1.0272011,179.21847,398.19627)"><path
         d="M 0,0 0.3,-12.12"
         style="fill:none;stroke:#000000;stroke-width:0.23999999;stroke-linecap:round;stroke-linejoin:round;stroke-miterlimit:10;stroke-dasharray:none;stroke-opacity:1"
         id="path3534"
         inkscape:connector-curvature="0" /></g><g
       id="g3536"
       transform="matrix(0.6072543,0,0,1.0272011,179.47352,381.43235)"><path
         d="M 0,0 -2.94,5.46 C -1.14,4.68 0.9,4.68 2.58,5.64 L 0,0"
         style="fill:#000000;fill-opacity:1;fill-rule:evenodd;stroke:none"
         id="path3538"
         inkscape:connector-curvature="0" /></g><g
       id="g3540"
       transform="matrix(0.6072543,0,0,1.0272011,179.47352,356.3481)"><path
         d="M 0,0 0,-12.84"
         style="fill:none;stroke:#000000;stroke-width:0.23999999;stroke-linecap:round;stroke-linejoin:round;stroke-miterlimit:10;stroke-dasharray:none;stroke-opacity:1"
         id="path3542"
         inkscape:connector-curvature="0" /></g><g
       id="g3544"
       transform="matrix(0.6072543,0,0,1.0272011,179.47352,338.84458)"><path
         d="m 0,0 -2.76,5.52 c 1.74,-0.84 3.78,-0.84 5.52,0 L 0,0"
         style="fill:#000000;fill-opacity:1;fill-rule:evenodd;stroke:none"
         id="path3546"
         inkscape:connector-curvature="0" /></g><g
       id="g3548"
       transform="matrix(0.6072543,0,0,1.0272011,179.47352,313.76034)"><path
         d="M 0,0 -0.06,-13.92"
         style="fill:none;stroke:#000000;stroke-width:0.23999999;stroke-linecap:round;stroke-linejoin:round;stroke-miterlimit:10;stroke-dasharray:none;stroke-opacity:1"
         id="path3550"
         inkscape:connector-curvature="0" /></g><g
       id="g3552"
       transform="matrix(0.6072543,0,0,1.0272011,179.40065,295.20908)"><path
         d="m 0,0 -2.7,5.52 c 1.74,-0.9 3.78,-0.9 5.52,0 L 0,0"
         style="fill:#000000;fill-opacity:1;fill-rule:evenodd;stroke:none"
         id="path3554"
         inkscape:connector-curvature="0" /></g><g
       id="g3556"
       transform="matrix(0.6072543,0,0,1.0272011,179.40065,270.0632)"><path
         d="M 0,0 0,-13.86"
         style="fill:none;stroke:#000000;stroke-width:0.23999999;stroke-linecap:round;stroke-linejoin:round;stroke-miterlimit:10;stroke-dasharray:none;stroke-opacity:1"
         id="path3558"
         inkscape:connector-curvature="0" /></g><g
       id="g3560"
       transform="matrix(0.6072543,0,0,1.0272011,179.40065,251.51195)"><path
         d="m 0,0 -2.76,5.52 c 1.74,-0.84 3.78,-0.84 5.52,0 L 0,0"
         style="fill:#000000;fill-opacity:1;fill-rule:evenodd;stroke:none"
         id="path3562"
         inkscape:connector-curvature="0" /></g><text
       transform="scale(0.76888459,-1.3005853)"
       style="font-variant:normal;font-weight:normal;font-stretch:normal;font-size:9.4774313px;font-family:SimSun;-inkscape-font-specification:SimSun;writing-mode:lr-tb;fill:#000000;fill-opacity:1;fill-rule:nonzero;stroke:#000000;stroke-width:0.18954864;stroke-linecap:butt;stroke-linejoin:miter;stroke-miterlimit:1;stroke-dasharray:none;stroke-opacity:1"
       id="text3564"
       x="332.41241"
       y="-176.08731"><tspan
         x="332.41241 341.92963 351.44687 360.96408 370.48129 379.99857"
         y="-176.08731"
         sodipodi:role="line"
         id="tspan3566"
         style="stroke-width:0.18954864">锂电池模型及</tspan><tspan
         x="351.46204 360.98685"
         y="-164.71439"
         sodipodi:role="line"
         id="tspan3568"
         style="stroke-width:0.18954864">参数</tspan><tspan
         x="19.420221 28.945036"
         y="-130.35774"
         sodipodi:role="line"
         id="tspan3570"
         style="stroke-width:0.18954864">一般</tspan><tspan
         x="21.742193 26.528296 31.314398"
         y="-118.98483"
         sodipodi:role="line"
         id="tspan3572"
         style="stroke-width:0.18954864">UKF</tspan><tspan
         x="19.420221 28.945036"
         y="-107.61192"
         sodipodi:role="line"
         id="tspan3574"
         style="stroke-width:0.18954864">估计</tspan><tspan
         x="19.420221 28.945036"
         y="-96.238998"
         sodipodi:role="line"
         id="tspan3576"
         style="stroke-width:0.18954864">算法</tspan><tspan
         x="423.44312 432.96796"
         y="-135.95039"
         sodipodi:role="line"
         id="tspan3578"
         style="stroke-width:0.18954864">改进</tspan><tspan
         x="425.76511 430.55121 435.33731"
         y="-124.57745"
         sodipodi:role="line"
         id="tspan3580"
         style="stroke-width:0.18954864">UKF</tspan><tspan
         x="423.44312 432.96796"
         y="-113.20454"
         sodipodi:role="line"
         id="tspan3582"
         style="stroke-width:0.18954864">估计</tspan><tspan
         x="423.44312 432.96796"
         y="-101.83163"
         sodipodi:role="line"
         id="tspan3584"
         style="stroke-width:0.18954864">算法</tspan><tspan
         x="369.37439 378.8916 388.40884 397.92609 407.4433 416.96054"
         y="25.216188"
         sodipodi:role="line"
         id="tspan3586"
         style="stroke-width:0.18954864">算法仿真验证</tspan></text>
<g
       id="g3588"
       transform="matrix(0.6072543,0,0,1.0272011,108.82556,118.94137)"><path
         d="m 0,0 0,-18.3 116.22,0 0,-70.92"
         style="fill:none;stroke:#000000;stroke-width:0.23999999;stroke-linecap:round;stroke-linejoin:round;stroke-miterlimit:10;stroke-dasharray:none;stroke-opacity:1"
         id="path3590"
         inkscape:connector-curvature="0" /><g
         id="g3592"
         transform="translate(232.68,0.12)"><path
           d="m 0,0 0,-18.42 -116.46,0 0,-63.3"
           style="fill:none;stroke:#000000;stroke-width:0.23999999;stroke-linecap:round;stroke-linejoin:round;stroke-miterlimit:10;stroke-dasharray:none;stroke-opacity:1"
           id="path3594"
           inkscape:connector-curvature="0" /></g></g><g
       id="g3596"
       transform="matrix(0.6072543,0,0,1.0272011,181.07667,35.799718)"><path
         d="M 0,0 -2.76,-8.28 -5.52,0 0,0"
         style="fill:#000000;fill-opacity:1;fill-rule:evenodd;stroke:none"
         id="path3598"
         inkscape:connector-curvature="0" /></g><g
       id="g3600"
       transform="matrix(0.6072543,0,0,1.0272011,179.40065,226.4277)"><path
         d="m 0,0 0,-23.76 116.46,0 0,-12.96"
         style="fill:none;stroke:#000000;stroke-width:0.23999999;stroke-linecap:round;stroke-linejoin:round;stroke-miterlimit:10;stroke-dasharray:none;stroke-opacity:1"
         id="path3602"
         inkscape:connector-curvature="0" /></g><g
       id="g3604"
       transform="matrix(0.6072543,0,0,1.0272011,251.7975,189.44845)"><path
         d="M 0,0 -2.76,-8.28 -5.52,0 0,0"
         style="fill:#000000;fill-opacity:1;fill-rule:evenodd;stroke:none"
         id="path3606"
         inkscape:connector-curvature="0" /></g><g
       id="g3608"
       transform="matrix(0.6072543,0,0,1.0272011,179.40065,226.4277)"><path
         d="m 0,0 0,-23.76 -116.22,0 0,-48.78"
         style="fill:none;stroke:#000000;stroke-width:0.23999999;stroke-linecap:round;stroke-linejoin:round;stroke-miterlimit:10;stroke-dasharray:none;stroke-opacity:1"
         id="path3610"
         inkscape:connector-curvature="0" /></g><g
       id="g3612"
       transform="matrix(0.6072543,0,0,1.0272011,110.50158,152.59248)"><path
         d="M 0,0 -2.76,-8.28 -5.52,0 0,0"
         style="fill:#000000;fill-opacity:1;fill-rule:evenodd;stroke:none"
         id="path3614"
         inkscape:connector-curvature="0" /></g><g
       id="g3616"
       transform="matrix(0.6072543,0,0,1.0272011,223.56018,66.061062)"><path
         d="m 0,0 -72.72,0 0,-37.74"
         style="fill:none;stroke:#000000;stroke-width:0.23999999;stroke-linecap:round;stroke-linejoin:round;stroke-miterlimit:10;stroke-dasharray:none;stroke-opacity:1"
         id="path3618"
         inkscape:connector-curvature="0" /></g></g></svg>